<svg xmlns="http://www.w3.org/2000/svg" viewBox="0 0 28.13 26.92"><defs><style>.a{fill:#474445;}</style></defs><title>pau-rafa</title><path class="a" d="M26.71,14.41a2.71,2.71,0,0,1-.28-.5l-.24-.46a2.34,2.34,0,0,1-1.25.34,2.77,2.77,0,0,1-.75-.12.94.94,0,0,1-.64-1,2.65,2.65,0,0,1,.29-1.07,3.8,3.8,0,0,1,1-1.2c0-.13,0-.25,0-.37a1.61,1.61,0,0,1,.29-1,1,1,0,0,1,.77-.44l.28,0c.16,0,.31.23.43.67a.65.65,0,0,1,0,.2,1.45,1.45,0,0,1-.16.59,3,3,0,0,1-.47.68c-.21.24-.4.45-.58.63l.88,1.7a.82.82,0,0,0,.31-.57,1.67,1.67,0,0,0-.07-.31,1.1,1.1,0,0,0-.5-.49c-.05,0-.07-.06-.07-.1a.15.15,0,0,1,.07-.12l.06,0,.07,0a1.43,1.43,0,0,1,.68.87.92.92,0,0,1,0,.16,1.06,1.06,0,0,1-.44.79c.33.64.5,1,.5,1a.11.11,0,0,1,0,0s0,0-.05.06l-.07,0Zm-.64-1.18L25.44,12c-.06-.14-.14-.28-.22-.45a3.9,3.9,0,0,0-1,1.42.49.49,0,0,0,0,.17s0,.05,0,.07c.07.21.31.31.71.31A2.27,2.27,0,0,0,26.07,13.23Zm-.55-3.35c.44-.29.67-.53.67-.74a.25.25,0,0,0-.11-.24.36.36,0,0,0-.19-.08c-.24,0-.46.16-.65.49a1.46,1.46,0,0,0-.18.77v.13A4,4,0,0,1,25.52,9.88Z"/><path class="a" d="M.86,12.45h0c0-.09.06-.64.16-1.65A75.12,75.12,0,0,1,2.58,1.63c.08-.28.24-.43.48-.42a.49.49,0,0,1,.33.14.5.5,0,0,1,.15.39v.15l-1,4.24A22.29,22.29,0,0,1,4,2.77,2.93,2.93,0,0,1,5.08,1.49a1.59,1.59,0,0,1,.71-.18,2.29,2.29,0,0,1,.59.14,1.77,1.77,0,0,1,.77.71,4,4,0,0,1,.69,2.4,5.94,5.94,0,0,1-.49,2.26A6.17,6.17,0,0,1,6,8.82,4.28,4.28,0,0,1,4,10a2.62,2.62,0,0,1-.62.07L3,10a1.11,1.11,0,0,1-.61-.31A1,1,0,0,1,2.09,9a3.1,3.1,0,0,1,.07-.41A1.13,1.13,0,0,1,2.63,8a2.14,2.14,0,0,1,.85-.37,7.24,7.24,0,0,1,.87-.12l0,.25c-.26,0-.53.06-.82.11a1.3,1.3,0,0,0-1.18,1,.63.63,0,0,0,0,.19.77.77,0,0,0,.19.49A.63.63,0,0,0,3,9.71a1.22,1.22,0,0,0,.45-.08A4.62,4.62,0,0,0,5.2,8.28,7.33,7.33,0,0,0,6.4,6.21a6.74,6.74,0,0,0,.45-2.28,3.29,3.29,0,0,0-.52-1.88.9.9,0,0,0-.73-.44.66.66,0,0,0-.4.1A3.45,3.45,0,0,0,4,3.15,18.31,18.31,0,0,0,3,5.7c-.34,1-.63,2-.89,2.92s-.48,1.81-.64,2.52-.26,1.16-.3,1.36Z"/><path class="a" d="M10.73,10.39h0a1.44,1.44,0,0,1-.47-.84,3.84,3.84,0,0,1-.09-.83c0-.1,0-.22,0-.33A5.86,5.86,0,0,1,9,9.59a.8.8,0,0,1-.23.05.34.34,0,0,1-.17,0h0a1,1,0,0,1-.46-.95,2.36,2.36,0,0,1,.2-.88A1.81,1.81,0,0,1,9,7a1.28,1.28,0,0,1,.71-.2,1.2,1.2,0,0,1,.88.32,2.35,2.35,0,0,1,.18-.31c.06-.09.12-.13.18-.13a.74.74,0,0,1,.4.16c.21.15.32.27.32.36a.46.46,0,0,1-.1.17,4.13,4.13,0,0,0-.71,2.15c0,.42.09.69.29.81h.14a.58.58,0,0,0,.29,0,1.45,1.45,0,0,0,.54-.44,11.33,11.33,0,0,0,1.05-2l.23.09c-.13.33-.31.74-.55,1.22a4.45,4.45,0,0,1-.73,1.09,1.28,1.28,0,0,1-.85.42A1,1,0,0,1,10.73,10.39ZM9.59,8.69c.24-.27.47-.55.68-.82a3.2,3.2,0,0,1,.19-.55.53.53,0,0,0-.39-.26c-.1,0-.19.07-.29.23A6,6,0,0,0,9.44,8l-.35.77h0a1.38,1.38,0,0,0-.2.54s0,.05,0,.05S9.21,9.12,9.59,8.69Z"/><path class="a" d="M15.94,11a.69.69,0,0,1-.56-.58,3.48,3.48,0,0,1-.09-.79V9.45c-.6,1-1.14,1.44-1.62,1.43s-.66-.26-.79-.77a3.43,3.43,0,0,1-.1-.88c0-.21,0-.52.09-1a5.1,5.1,0,0,1,.49-1.46l0-.05c.06-.15.15-.23.28-.23a1,1,0,0,1,.51.22q.18.15.18.24a.07.07,0,0,1,0,0,7.11,7.11,0,0,0-1,3c0,.26,0,.42.14.49l.05,0h.15a.67.67,0,0,0,.31-.07,2.66,2.66,0,0,0,.75-.75,8.54,8.54,0,0,0,.59-.92A7.73,7.73,0,0,1,15.79,7c0-.07.12-.1.25-.1h.17a1,1,0,0,1,.33.12c.13.07.19.14.19.22v0l-.38,1.06a8.19,8.19,0,0,0-.52,2.09c0,.24.06.37.18.37s.6-.3,1.09-.91,1-1.37,1.52-2.07l.21.13c-.47.7-1,1.37-1.47,2S16.35,11,16,11Z"/><path class="a" d="M9,24a1.57,1.57,0,0,1-.44-.45A4.77,4.77,0,0,1,8,22.15a13.79,13.79,0,0,0-.4-1.35A4.6,4.6,0,0,0,7,19.53h0a3.79,3.79,0,0,1-.6.09A.84.84,0,0,1,6,19.54a.46.46,0,0,1-.29-.46.45.45,0,0,1,.08-.26.37.37,0,0,1,.33-.15l.19,0a1.51,1.51,0,0,1,.57.39,9.14,9.14,0,0,0,1.47-1.23,10.29,10.29,0,0,0,1.22-1.48,3.55,3.55,0,0,0,.74-1.78.69.69,0,0,0-.21-.56.65.65,0,0,0-.47-.17,1.41,1.41,0,0,0-.72.25,9.91,9.91,0,0,0-3.07,4.33,32.54,32.54,0,0,0-1.49,4.64l-.09.36H4.19l-.17,0v-.09c0-.47,0-.94,0-1.41a31.94,31.94,0,0,1,1.27-8.54c.1-.28.27-.42.49-.42a.49.49,0,0,1,.34.14.46.46,0,0,1,.14.37s0,.09,0,.14a55.67,55.67,0,0,0-1.73,7.92c.25-.89.56-1.81.93-2.78a10.44,10.44,0,0,1,3.32-4.82A2.18,2.18,0,0,1,10,13.38a1.21,1.21,0,0,1,.44.1,1.37,1.37,0,0,1,.76,1.39,3.93,3.93,0,0,1-.42,1.62,5.61,5.61,0,0,1-1.34,1.76,5.47,5.47,0,0,1-2.21,1.21,5.53,5.53,0,0,1,.71,1.39c.17.51.32,1,.43,1.47v0C8.63,23.42,9,24,9.55,24a1.23,1.23,0,0,0,.55-.19,2.75,2.75,0,0,0,.78-.83,25.77,25.77,0,0,0,1.61-3.83l.23.09a31.8,31.8,0,0,1-1.41,3.5,4.91,4.91,0,0,1-.79,1,1.4,1.4,0,0,1-1,.46A1,1,0,0,1,9,24ZM6.65,19.22a1,1,0,0,0-.57-.31.13.13,0,0,0-.13.15c0,.19.11.29.31.3A.77.77,0,0,0,6.65,19.22Z"/><path class="a" d="M14.65,22.06h0a1.41,1.41,0,0,1-.47-.83,3.91,3.91,0,0,1-.09-.83c0-.11,0-.23,0-.34a5.85,5.85,0,0,1-1.17,1.2.6.6,0,0,1-.23.05l-.17,0,0,0a.93.93,0,0,1-.46-1,2.59,2.59,0,0,1,.19-.88,1.88,1.88,0,0,1,.68-.81,1.14,1.14,0,0,1,.71-.2,1.12,1.12,0,0,1,.87.31c.08-.14.14-.24.19-.31s.12-.13.18-.13a.77.77,0,0,1,.4.17c.21.15.32.26.32.36a.72.72,0,0,1-.1.17,4.09,4.09,0,0,0-.71,2.14c0,.43.09.7.29.81h.13a1,1,0,0,0,.3-.05,1.62,1.62,0,0,0,.54-.45,11.58,11.58,0,0,0,1-2l.23.08c-.13.33-.31.74-.55,1.22A4.76,4.76,0,0,1,16,21.8a1.28,1.28,0,0,1-.85.42A.92.92,0,0,1,14.65,22.06Zm-1.14-1.7c.24-.28.47-.56.68-.83a3.2,3.2,0,0,1,.19-.55.53.53,0,0,0-.39-.26c-.1,0-.19.08-.29.23a7.43,7.43,0,0,0-.34.69c-.1.23-.22.48-.36.76h0a1.46,1.46,0,0,0-.19.53s0,0,0,0S13.13,20.78,13.51,20.36Z"/><path class="a" d="M18,25.78a.68.68,0,0,1-.54-.29,2.14,2.14,0,0,1-.37-.74,5,5,0,0,1-.22-.81,12.42,12.42,0,0,1-.21-2.34,18.2,18.2,0,0,1,.21-2.14,12.39,12.39,0,0,1,.86-2.93,9.32,9.32,0,0,1,1.38-2.45c.44-.52.83-.79,1.17-.78h.14a.91.91,0,0,1,.54,1,3.9,3.9,0,0,1-.34,1.46,7.21,7.21,0,0,1-1,1.66,6,6,0,0,1-1.47,1.33l-.12.58c.38.06.67.51.89,1.36H19a2.63,2.63,0,0,0,1.19-.29,2.86,2.86,0,0,0,1.09-.92l.2.15a3.07,3.07,0,0,1-1.15,1,3,3,0,0,1-1.32.33h0a7.9,7.9,0,0,1,.15,1.77c0,.05,0,.27,0,.67a5.38,5.38,0,0,1-.28,1.44c-.18.57-.44.9-.78,1Zm.64-1.1a8.27,8.27,0,0,0,.27-2.08,7.71,7.71,0,0,0-.18-1.7,1.49,1.49,0,0,1-.9-.45,23.76,23.76,0,0,0-.32,3.5,6.53,6.53,0,0,0,0,.79c.05.52.22.79.51.8S18.5,25.2,18.66,24.68ZM18,19.56l-.1.57a1.21,1.21,0,0,0,.77.51C18.5,20,18.28,19.61,18,19.56Zm2-3a4.69,4.69,0,0,0,.77-2.2c0-.41-.12-.67-.38-.78h-.07c-.39,0-.81.66-1.25,2a27.61,27.61,0,0,0-.78,2.86A6.39,6.39,0,0,0,20,16.53Z"/><path class="a" d="M23.51,22.16h0a1.48,1.48,0,0,1-.46-.84,2.9,2.9,0,0,1-.09-.83c0-.1,0-.22,0-.33a6.46,6.46,0,0,1-1.17,1.2.87.87,0,0,1-.23,0,.32.32,0,0,1-.17,0h0a1,1,0,0,1-.47-.95,2.57,2.57,0,0,1,.2-.88,1.81,1.81,0,0,1,.67-.82,1.33,1.33,0,0,1,.71-.2,1.19,1.19,0,0,1,.88.32,2.35,2.35,0,0,1,.18-.31.25.25,0,0,1,.19-.13.74.74,0,0,1,.4.16c.21.15.31.27.31.36a.54.54,0,0,1-.09.17,4.06,4.06,0,0,0-.72,2.15c0,.42.1.7.3.81h.13a.72.72,0,0,0,.29-.06,1.45,1.45,0,0,0,.54-.44,10.77,10.77,0,0,0,1.06-2.05l.23.09a12.79,12.79,0,0,1-.56,1.22,4.46,4.46,0,0,1-.72,1.09,1.31,1.31,0,0,1-.86.42A1,1,0,0,1,23.51,22.16Zm-1.15-1.7c.25-.28.47-.56.69-.83a3.23,3.23,0,0,1,.18-.55.5.5,0,0,0-.38-.26c-.1,0-.2.07-.29.23a4.21,4.21,0,0,0-.34.68l-.36.77h0a1.65,1.65,0,0,0-.2.54s0,.05,0,.05S22,20.88,22.36,20.46Z"/></svg>