<svg xmlns="http://www.w3.org/2000/svg" xmlns:xlink="http://www.w3.org/1999/xlink" viewBox="0 0 194.59 165.01"><defs><clipPath id="a"><rect x="-145.63" y="279.56" width="484.78" height="601.82" fill="none"/></clipPath></defs><title>pau-rafa</title><path d="M175.68,86.75a16.14,16.14,0,0,1-1.69-3L172.56,81a14.76,14.76,0,0,1-7.52,2,16,16,0,0,1-4.49-.76c-2.61-1-3.9-2.93-3.87-6a15.55,15.55,0,0,1,1.79-6.43,23.07,23.07,0,0,1,5.93-7.24c-.06-.79-.09-1.5-.09-2.21a9.73,9.73,0,0,1,1.76-6,5.75,5.75,0,0,1,4.64-2.65l1.65.09c1,.09,1.86,1.41,2.62,4a6.42,6.42,0,0,1,.13,1.23,8.5,8.5,0,0,1-1,3.55,18.93,18.93,0,0,1-2.78,4.1c-1.26,1.41-2.4,2.67-3.49,3.75q.76,1.57,5.28,10.21A5,5,0,0,0,175,75.35a8.66,8.66,0,0,0-.47-1.88c-.29-.91-1.29-1.89-3-2.92a.72.72,0,0,1-.36-.61.78.78,0,0,1,.38-.71.6.6,0,0,1,.38-.1,1,1,0,0,1,.41.11c2.31,1.49,3.67,3.23,4.06,5.22a4.08,4.08,0,0,1,.1,1c0,1.65-.89,3.21-2.67,4.69,2,3.85,3,5.85,3,6a1.85,1.85,0,0,1,0,.34.85.85,0,0,1-.31.33,1,1,0,0,1-.41.15A1.19,1.19,0,0,1,175.68,86.75Zm-3.82-7.09-3.78-7.28c-.4-.79-.88-1.66-1.36-2.67-3.18,3.22-5.16,6.05-5.94,8.52a4,4,0,0,0-.23,1,1.23,1.23,0,0,0,.07.42c.43,1.24,1.85,1.85,4.25,1.88A13.81,13.81,0,0,0,171.86,79.66Zm-3.34-20.13c2.69-1.7,4-3.14,4.07-4.42a1.65,1.65,0,0,0-.7-1.43,1.62,1.62,0,0,0-1.16-.46c-1.42,0-2.71.94-3.89,2.91a9.5,9.5,0,0,0-1.07,4.64v.75A33.05,33.05,0,0,1,168.52,59.53Z" fill="#474445"/><path d="M20.43,75v0c0-.52.32-3.81.94-9.9a457.11,457.11,0,0,1,9.35-55c.53-1.71,1.47-2.59,2.91-2.57a3,3,0,0,1,2,.86,2.91,2.91,0,0,1,.85,2.33l0,.89L30.52,37A133.3,133.3,0,0,1,39,16.86a17.88,17.88,0,0,1,6.78-7.69A9.36,9.36,0,0,1,50,8.11a12,12,0,0,1,3.53.83c1.52.52,3,1.94,4.64,4.23a24.65,24.65,0,0,1,4.12,14.41,35.74,35.74,0,0,1-2.94,13.6,36.46,36.46,0,0,1-8.17,12,25.81,25.81,0,0,1-12.17,6.94,14.93,14.93,0,0,1-3.77.42c-.42,0-1.21-.06-2.28-.16a7,7,0,0,1-3.65-1.9,6,6,0,0,1-1.54-4,19.16,19.16,0,0,1,.4-2.46A6.89,6.89,0,0,1,31,48.25,12.55,12.55,0,0,1,36.14,46a44.94,44.94,0,0,1,5.21-.68l.13,1.49a49.11,49.11,0,0,0-4.89.64c-4,.75-6.36,2.67-7.14,5.83a5.67,5.67,0,0,0-.15,1.16,4.52,4.52,0,0,0,1.13,2.94,4,4,0,0,0,2.87,1.14A7.05,7.05,0,0,0,36,58,27.43,27.43,0,0,0,46.46,50a43.63,43.63,0,0,0,7.21-12.47,39.26,39.26,0,0,0,2.71-13.64,19.92,19.92,0,0,0-3.13-11.34C52,10.73,50.53,9.88,48.91,9.86a4.81,4.81,0,0,0-2.43.62c-2.43,1.42-4.79,4.28-7.07,8.67A102.84,102.84,0,0,0,33,34.47q-3,8.82-5.35,17.51c-1.6,5.8-2.86,10.85-3.84,15.12s-1.57,7-1.77,8.21Z" fill="#474445"/><path d="M79.71,62.65l-.09,0a8.63,8.63,0,0,1-2.78-5,20,20,0,0,1-.55-5c0-.65.06-1.34.11-2-3.39,4.1-5.74,6.49-7,7.17a3.71,3.71,0,0,1-1.4.31A2.32,2.32,0,0,1,67,58l-.19-.09c-1.9-1-2.8-2.87-2.77-5.71a15.17,15.17,0,0,1,1.17-5.28A10.93,10.93,0,0,1,69.25,42a7.37,7.37,0,0,1,4.24-1.21c2.42,0,4.18.7,5.28,1.92a14.74,14.74,0,0,1,1.09-1.89c.38-.51.75-.78,1.12-.78a4.73,4.73,0,0,1,2.41,1c1.25.9,1.89,1.6,1.88,2.16a3.53,3.53,0,0,1-.57,1,24.35,24.35,0,0,0-4.28,12.88c0,2.55.56,4.19,1.76,4.85l.37,0H83a4.62,4.62,0,0,0,1.77-.31A9.2,9.2,0,0,0,88,59a65.91,65.91,0,0,0,6.32-12.3l1.39.53a76.13,76.13,0,0,1-3.34,7.31A27.82,27.82,0,0,1,88,61.11a7.62,7.62,0,0,1-5.15,2.5A5.51,5.51,0,0,1,79.71,62.65ZM72.85,52.44Q75,50,77,47.46a24.33,24.33,0,0,1,1.1-3.29,3,3,0,0,0-2.3-1.56c-.61,0-1.17.45-1.74,1.38a33,33,0,0,0-2,4.11q-.93,2.09-2.15,4.58v0a9.19,9.19,0,0,0-1.19,3.19c0,.24,0,.33.18.33C69.23,56.26,70.59,55,72.85,52.44Z" fill="#474445"/><path d="M111,66.48a4.24,4.24,0,0,1-3.4-3.52,19.57,19.57,0,0,1-.51-4.7l.06-1.26c-3.59,5.77-6.83,8.62-9.72,8.59-2.42,0-4-1.58-4.78-4.66a20.61,20.61,0,0,1-.59-5.26A49.87,49.87,0,0,1,92.64,50a30.32,30.32,0,0,1,2.93-8.76l.15-.32c.38-.93.94-1.38,1.69-1.38a5.82,5.82,0,0,1,3,1.34c.74.57,1.1,1,1.1,1.41a.62.62,0,0,1,0,.32c-3.94,7.35-5.91,13.42-6,18.26,0,1.53.25,2.51.85,2.93l.28.1a4.09,4.09,0,0,0,.93.1,3.72,3.72,0,0,0,1.86-.44A16.74,16.74,0,0,0,104,59a50.72,50.72,0,0,0,3.5-5.54,51.16,51.16,0,0,1,2.59-11.27c.24-.41.75-.59,1.54-.59.09,0,.42,0,1,.06a5.64,5.64,0,0,1,2,.72c.78.43,1.15.85,1.14,1.32v.14l-2.25,6.34c-2.07,5.93-3.09,10.1-3.12,12.57,0,1.44.35,2.19,1.05,2.19,1.39,0,3.6-1.82,6.57-5.46A149.86,149.86,0,0,0,127.08,47l1.25.8c-2.79,4.2-5.72,8.22-8.83,12.13-3.31,4.39-6.07,6.54-8.31,6.52Z" fill="#474445"/><path d="M69.26,144.6a9.06,9.06,0,0,1-2.66-2.68,29.94,29.94,0,0,1-3.07-8.68c-.62-2.66-1.43-5.37-2.37-8.12A27.52,27.52,0,0,0,57,117.5h-.09a17.24,17.24,0,0,1-3.59.57,5.63,5.63,0,0,1-2.08-.49,2.92,2.92,0,0,1-1.74-2.76,2.7,2.7,0,0,1,.53-1.58,2.2,2.2,0,0,1,2-.86,7.5,7.5,0,0,1,1.12.11c.6,0,1.75.85,3.46,2.36a58.71,58.71,0,0,0,8.82-7.39,61,61,0,0,0,7.31-8.94c3-4.38,4.45-8,4.48-10.64a4.32,4.32,0,0,0-1.26-3.36,4,4,0,0,0-2.82-1.06A8.17,8.17,0,0,0,68.71,85q-11,8-18.46,26a197.43,197.43,0,0,0-8.91,27.89L40.76,141l-.33-.1a5,5,0,0,0-1-.1v-.56c-.1-2.84-.12-5.63-.09-8.46A192.12,192.12,0,0,1,47,80.51c.57-1.66,1.61-2.54,3-2.52a2.86,2.86,0,0,1,2,.86A2.82,2.82,0,0,1,52.81,81a5.79,5.79,0,0,1-.1.88,345.51,345.51,0,0,0-10.39,47.55c1.51-5.33,3.38-10.89,5.63-16.72q7.89-20.22,19.89-28.94c2.91-2.15,5.34-3.24,7.34-3.22a6.82,6.82,0,0,1,2.64.59c3.15,1.48,4.65,4.24,4.61,8.33a24,24,0,0,1-2.58,9.78,33.23,33.23,0,0,1-8,10.56,32.5,32.5,0,0,1-13.28,7.24,32.6,32.6,0,0,1,4.28,8.37q1.55,4.56,2.55,8.82c0,.09,0,.19,0,.23,1.65,6.39,4,9.63,7.2,9.66a7.36,7.36,0,0,0,3.31-1.12,16.65,16.65,0,0,0,4.66-5c1.7-2.5,5-10.18,9.69-23l1.39.53c-4.31,11.62-7.13,18.66-8.51,21a29.6,29.6,0,0,1-4.72,6.27,8.63,8.63,0,0,1-5.75,2.77A6.09,6.09,0,0,1,69.26,144.6Zm-14-28.94c-1.38-1.22-2.54-1.84-3.42-1.85-.51,0-.8.32-.8.88,0,1.16.63,1.77,1.84,1.78A4.56,4.56,0,0,0,55.22,115.66Z" fill="#474445"/><path d="M103.25,132.7l-.09,0a8.63,8.63,0,0,1-2.78-5,19.91,19.91,0,0,1-.55-5c0-.66.06-1.35.11-2-3.39,4.1-5.74,6.49-7,7.17a3.67,3.67,0,0,1-1.39.31,2.32,2.32,0,0,1-1-.15l-.19-.09c-1.9-1-2.8-2.87-2.77-5.71a15,15,0,0,1,1.17-5.28,11,11,0,0,1,4-4.89,7.34,7.34,0,0,1,4.25-1.2c2.42,0,4.18.69,5.28,1.91a14.74,14.74,0,0,1,1.09-1.89c.38-.51.75-.78,1.12-.78a4.73,4.73,0,0,1,2.41,1c1.24.9,1.89,1.61,1.88,2.16a3.53,3.53,0,0,1-.57,1A24.35,24.35,0,0,0,104,127.13c0,2.56.56,4.19,1.76,4.85l.37.05h.42a4.44,4.44,0,0,0,1.77-.31,9.2,9.2,0,0,0,3.24-2.66,67.13,67.13,0,0,0,6.32-12.3l1.39.53a76.13,76.13,0,0,1-3.34,7.31,27.51,27.51,0,0,1-4.35,6.55,7.62,7.62,0,0,1-5.14,2.5A5.51,5.51,0,0,1,103.25,132.7Zm-6.86-10.21c1.46-1.66,2.82-3.32,4.1-5a24.33,24.33,0,0,1,1.1-3.29,3,3,0,0,0-2.3-1.56c-.61,0-1.17.46-1.74,1.38a31.67,31.67,0,0,0-2,4.11q-.93,2.09-2.15,4.58v0a8.94,8.94,0,0,0-1.19,3.2c0,.23,0,.32.18.32C92.76,126.31,94.13,125,96.39,122.49Z" fill="#474445"/><path d="M123.51,155.06a4.13,4.13,0,0,1-3.28-1.76,14.12,14.12,0,0,1-2.23-4.39,36.4,36.4,0,0,1-1.3-4.9A73,73,0,0,1,115.46,130a102.22,102.22,0,0,1,1.26-12.86,74.49,74.49,0,0,1,5.13-17.61c2.58-6.25,5.33-11.15,8.3-14.7,2.63-3.13,5-4.73,7-4.71a4.81,4.81,0,0,1,.84.1c2.22.86,3.32,2.83,3.28,5.85a24.32,24.32,0,0,1-2.09,8.81,40.87,40.87,0,0,1-5.93,9.93,34,34,0,0,1-8.83,8c-.24,1.16-.49,2.32-.73,3.47,2.27.4,4.05,3.12,5.35,8.2h.51a16.52,16.52,0,0,0,7.13-1.74,17.61,17.61,0,0,0,6.57-5.55l1.2.9a18.93,18.93,0,0,1-6.95,5.92,17.33,17.33,0,0,1-7.92,2h-.19a48,48,0,0,1,1,10.61c0,.33,0,1.68-.09,4.05a33,33,0,0,1-1.68,8.67c-1.06,3.43-2.61,5.37-4.71,5.81Zm3.79-6.61A46.85,46.85,0,0,0,128.93,136a44.21,44.21,0,0,0-1.05-10.19,8.91,8.91,0,0,1-5.41-2.71,144.37,144.37,0,0,0-2,21c0,1.76,0,3.35.13,4.74.29,3.12,1.34,4.71,3.06,4.78C125.16,153.31,126.38,151.56,127.3,148.45Zm-3.89-30.73-.59,3.39a7.31,7.31,0,0,0,4.61,3.07C126.36,120.17,125,118,123.41,117.72Zm11.78-18.24q4.55-7.62,4.61-13.2c0-2.46-.7-4-2.27-4.67l-.42,0c-2.32,0-4.83,3.94-7.48,11.91a159.19,159.19,0,0,0-4.7,17.2A38.22,38.22,0,0,0,135.19,99.48Z" fill="#474445"/><path d="M156.44,133.29l-.09,0a8.63,8.63,0,0,1-2.78-5,20,20,0,0,1-.55-5c0-.65.06-1.34.11-2-3.39,4.1-5.74,6.49-7,7.17a3.67,3.67,0,0,1-1.39.31,2.37,2.37,0,0,1-1-.15l-.18-.09c-1.9-1-2.8-2.87-2.77-5.71a15,15,0,0,1,1.17-5.28,11,11,0,0,1,4.05-4.89,7.42,7.42,0,0,1,4.25-1.21c2.42,0,4.18.7,5.28,1.92a14.74,14.74,0,0,1,1.09-1.89c.38-.51.75-.78,1.12-.78a4.73,4.73,0,0,1,2.41,1c1.24.9,1.89,1.6,1.88,2.16a3.53,3.53,0,0,1-.57,1,24.35,24.35,0,0,0-4.28,12.88c0,2.55.56,4.19,1.76,4.85l.37.05h.42a4.62,4.62,0,0,0,1.77-.31,9.2,9.2,0,0,0,3.24-2.66,67.13,67.13,0,0,0,6.32-12.3l1.39.53a76.13,76.13,0,0,1-3.34,7.31,27.51,27.51,0,0,1-4.35,6.55,7.62,7.62,0,0,1-5.14,2.5A5.51,5.51,0,0,1,156.44,133.29Zm-6.86-10.21q2.19-2.49,4.1-5a24.33,24.33,0,0,1,1.1-3.29,3,3,0,0,0-2.3-1.56c-.61,0-1.17.45-1.74,1.38a31,31,0,0,0-2,4.11q-.93,2.08-2.15,4.58v.05a9.29,9.29,0,0,0-1.2,3.19c0,.24.05.33.19.33C146,126.9,147.32,125.61,149.58,123.08Z" fill="#474445"/><g clip-path="url(#a)"><g opacity="0.83"><path d="M263.33,263.92c.1.73-.61,1.35-.25,2.21,2,0,4-1,6.05-.52.09,0,.2-.05.3-.09,1-.46,1.76-2.22,2.88-1.35,1.35,1,3,2,3.63,3.76a3.1,3.1,0,0,0,1.21,1.39,1.76,1.76,0,0,1,.5,2c-.44,1.8-1,3.57-.53,5.51.2.76-.41,1.39-1.27,1.5s-1-.52-1.22-1.15c-.76-2.41-2.69-4.59-1.4-7.42.21-.48-.38-1.26-.84-1-2,1.17-4-.4-6,.17-.8.22-1.76.11-2.25.87-1.44,2.21-3.78,3.12-5.92,4.33a2.23,2.23,0,0,0-1,.77c-.63,1.46-1.55,1.51-2.75.75-.47-.3-1.13-.51-1.49-.17-1.47,1.35-2.64.59-4.22,0a22.05,22.05,0,0,0-15.58-.21c-1.62.6-3.46.53-5.14,1.11a7.78,7.78,0,0,0-2.63.95,3.12,3.12,0,0,1-3,.23,28.41,28.41,0,0,1-8-3.91c-2.46-1.73-5.11-3.16-7.67-4.73a9.47,9.47,0,0,0-8.06-1.09,8.29,8.29,0,0,1-4,.62c-1.09-.19-1.84.92-2.7,1.46s-2,1.45-2.86.85c-2.19-1.63-4.62-.5-6.88-.93-.74-.15-1.69.52-2.2-.49s-1.83-1.81-1.43-3c.83-2.53.11-5.05-.24-7.41-.51-3.36-.78-6.82-2-10.09a12.59,12.59,0,0,1-1-4.58,4.39,4.39,0,0,0-.64-2.4,12.71,12.71,0,0,1-1.56-9,2.06,2.06,0,0,0-.08-1.21,7.09,7.09,0,0,1,.07-6.36c.44-1-.38-1.93-.08-3.06,1-3.57,2.31-7,5.13-9.41,5.63-4.81,7.57-11,8-18.12a36.36,36.36,0,0,0-.35-8,12.67,12.67,0,0,1,.46-5.87,8.27,8.27,0,0,1,3.07-3.42c2.48-1.85,3.33-4.75,5-7.11.54-.77.06-1.61.13-2.38.15-1.79-.42-4.12,2.44-4.63a1.37,1.37,0,0,0,1-2c-.94-2.1-.19-3.55,1.45-4.91a3.07,3.07,0,0,0,1.27-2.45c-.12-2.12.74-4.06,1.07-6,.53-3.16,2.69-3.78,4.92-4.54,1-.32,2-.36,3-.69,2.56-.83,2.63-.84,4.05,1.43,1,1.69,2.63.81,4,1.05l.06.47c-1,1.22-2.48,1.53-3.79,2.13s-2.33.24-2.5-1.33c-.11-1.06-.25-1.92-1.63-1.61-1.18.26-2.64-.08-3,1.64-.75,3.25-1.1,6.63-3.33,9.39a1.93,1.93,0,0,0,.25,2.38c1.47,1.64,1,3.56.94,5.41,0,.78.25,1.89-1,2-1,0-1.42-.76-1.71-1.61-.21-.57-.08-1.24-.61-2a38.15,38.15,0,0,1-6.21,13.37c-3.7,5-4.56,11-5.07,17-.69,8.13-2.26,15.87-7.62,22.56-5.88,7.32-6.58,15.82-4.2,24.69,1.54,5.78,2.73,11.65,4,17.49.91,4.1,3.79,6.39,6.84,8.65a2,2,0,0,0,2.12.24c2.2-1.3,4.7-1,7-1.34,7-1.16,13.11,1.37,18.35,5.82,3.08,2.61,6.14,3,9.92,2.07,4.73-1.21,9.39-3.28,14.45-2.45,1.92.32,3-1.3,4.69-1.46a24.07,24.07,0,0,1,3,1.16c1.8.92,3.31,2.21,5.77,1.14s3.88-2,3.14-4.82a2.12,2.12,0,0,1,.62-.61c.91-.45,2-.23,2.89-.68l.58-.47a5,5,0,0,1,.57-.46l.34-.15A.77.77,0,0,1,263.33,263.92Z" fill="#fff"/><path d="M217.83,145.09c.69,0,1.44-.11,1.9.63,1.44,2.83,1.18,3.4-2,4.42a6.49,6.49,0,0,1-.77,0,1,1,0,0,0-1.06.72,3,3,0,0,1-.65,1c-1.74.59-3.78.75-4.22,3.11,0,.19-.22.45-.39.46-3.69.28-3.36,3-3.62,5.59a3.3,3.3,0,0,0,.34,2.38,8.73,8.73,0,0,1,1,2.63c.89,3.42,0,4.68-3.53,4.13-2.15-.35-2.75.29-3.9,2.13-6.37,10.13-7.58,21.64-9.62,33-.85,4.69-2.84,8.76-6.9,11.57l-.69.54c-.1.11-.22.2-.32.3s-.4.43-.59.66l-.28.35c-2,5.19-2.57,10.63-2.68,16.14a6.9,6.9,0,0,0,.42,2.15c1.64,5.27,2.63,10.7,4,16a19.25,19.25,0,0,0,4.77,8.7,6.47,6.47,0,0,1,.44.82c.47,1.39,1.56,1.16,2.61,1,1.85-.35,3.74-.63,5.53-1.15,3.31-1,6.4-.12,9.45.78a22,22,0,0,1,9.31,5.09c3.85,3.74,7.72,2.92,12.07,1,2.65-1.17,5.46-2.49,8.58-2,2.31.48,4.53,1.53,7,.7a2.37,2.37,0,0,1,2.32.64c0,.16-.05.32-.07.48-.11,0-.26,0-.31,0-1.51,1.95-3.81,1.68-5.87,2.11-.54.11-1,.31-1.5,0a3.87,3.87,0,0,0-3.92,0c-2.91,1.3-6,1.65-9.06,2.51a8.65,8.65,0,0,1-8.7-2c-4.85-4.3-10.47-6.84-17.16-6.42-.84.05-1.73-.06-2.38.6-1.25,1.28-2.4-.66-3.48-.11s-1.89,1.65-3.36,1.43a3.51,3.51,0,0,1-2.05-.64c-2.22-2-4.64-3.86-6.25-6.43-.85-1.35-.34-3.08-1-4.57-1.3-3.06-1.63-6.42-2.27-9.62-.91-4.56-2.62-9-2.41-13.85.14-3.09-.49-6.19.72-9.21.58-1.46,1-3,2.37-4,.32-.23.75-.66.72-1-.2-2.5,1.7-3.69,3.09-5.21a6.13,6.13,0,0,0,1-1.57,68.43,68.43,0,0,0,3.77-10.87c1.44-5.63.75-11.48,2.4-17a26.81,26.81,0,0,1,3.19-7.39c1.27-1.88,2.1-4.11,4.09-5.47a1.52,1.52,0,0,0,.68-1c-.21-3.12,2.25-5.55,2.18-8.61a.69.69,0,0,1,.51-.7c.51-.16.81.2,1,.54a3.89,3.89,0,0,1,.3,2.16c0,.94,0,1.9,1.32,2.6.16-1.66-.34-3.19.3-4.61.26-.56-.4-.85-.72-1.25-1.66-2.1-1.58-3.67.39-5.58a4.72,4.72,0,0,0,1.05-2.23c.44-1.36-.1-3,1.14-4.16.3-.29.14-.8-.15-1.15-.78-1-.3-1.37.66-1.83,1.62-.77,3.47-.18,5.09-1.09.63-.35,1.06.5.88,1.21-.21.9-.81,1.76,0,2.83C214.49,147.06,216,145.66,217.83,145.09Z" fill="#fdfcfa"/><path d="M183.7,216.51a17.57,17.57,0,0,0,7-12.93c.32-3.5.65-7.07,2.1-10.37a12.73,12.73,0,0,0,.82-4c.37-3.87,2.26-7.29,2.82-11.08.23-1.55,1.67-2.62,2.5-3.93,1.07-1.7,2.14-3.28,1.94-5.39,2-.46,3.63.81,5.51.65,1.45-.13,2-.35,1.57-1.76-.49-1.66-.38-3.57-2.09-4.72-.8-.54-.59-1.27,0-1.87.83-.81,1.12-1.38.27-2.62-1-1.41.15-3,2.1-3.26,1.31-.16,2.42,0,2.21-2-.09-.81,1.44-.78,1.86-1.88.49-1.27,1.31.38,2.05.25a5.85,5.85,0,0,0,.9-.28l.37.25c.57.78,1,1.56.24,2.46-1.64-.11-3.53-.73-3.44,2.12,0,.69-.81,1.17-1.39,1.62-.22.19-.44.36-.66.54-1.82,1.36-.73,3.36-1.1,5q.1.39.18.78c.13.52.28,1,.46,1.55a3.88,3.88,0,0,1,.18.82,8.05,8.05,0,0,1-.85,3.33,4.76,4.76,0,0,1-.82,1.07c-4.36,1-5.51,5.29-8.18,8a4.73,4.73,0,0,0-1.17,4.12c.81,4.75-2,8.61-3.07,12.88-.36,1.45-1.19,2.92-.26,4.16,1.28,1.73.71,3.14-.14,4.63-1.1,1.9-1.79,4-3.15,5.78-1.07,1.66-1.69,3.58-3,5.08-.49.54-.87,1.4-1.53,1.51-3,.46-4.14,2.59-4.87,5.15-2.17-1.24-1.78-2.83-.62-4.53h0l.63-.64h0C183.29,216.94,183.48,216.71,183.7,216.51Z" fill="#f6f4ea"/></g><g opacity="0.83"><path d="M54.38,128.65c.31.23.67.69.94.65,5.81-.9,10.85,2.84,16.54,2.69a10.15,10.15,0,0,1,2.66.69c3.63,0,4.34,3.48,6.45,5.3a20.39,20.39,0,0,0,4.36,2.92c.24.27.46.55.69.83l.35.42a3.88,3.88,0,0,1,.48,1c0,.18,0,.36,0,.54a2.51,2.51,0,0,1-.72.8c-.31.26-.67.57-.64,1,.16,2.09,1.3,4.44-.58,6.11a30.24,30.24,0,0,1-9,5.09,4.8,4.8,0,0,1-5.41-1.85c-1.23-1.65-1.72-3.8-4.19-4.4-1-.23-.89-1.52-.56-2.47,1.14-3.29-.06-5.71-2.8-7.67-.72,1.17-.48,2.62-1.38,3.71-2.11,2.55-5.14,2.43-6.94-.37-3.34-5.21-8.18-6.93-13.71-4.69-1.37.55-2.61,1.1-3.47-.44s.17-2.91,1.52-3.6a33.32,33.32,0,0,1,6.33-2.53c.54-.15,1.54-.11.88-1.21a.7.7,0,0,1,.19-.84h.81C49.67,130.31,51.59,127.52,54.38,128.65Z" fill="#fffef8"/><path d="M49.54,114.61c0-2.71,1.7-5.52,3.85-6.39a1.5,1.5,0,0,1,2.21,1.88,10.72,10.72,0,0,1-3.3,5.74c-.6.48-1.09,1.39-1.94,1.14C49.17,116.63,49.67,115.46,49.54,114.61Z" fill="#fff"/><path d="M54.38,128.65c-2.45.38-4.53,2.44-7.25,1.62,1.1-.66,2.16-1.38,3.31-1.94C51.78,127.67,53.16,127.43,54.38,128.65Z" fill="#fff"/><path d="M85,141.54c-1.27-1.16-3.4-1.26-4-3.22-.25-.18-.33-.36-.25-.54s.17-.26.25-.26c3.81,1.72,7,4.44,10.23,6.95a17.14,17.14,0,0,0,8.43,3c2.39.33,4.12,1.39,6.07,2.3.7.33,1.21,1.15,1.93,1.38a6.92,6.92,0,0,1,4.81,6.75c.14,4,2.25,7,3.8,10.31,1.26,2.68,3.65,4.39,5.67,6.47,2.89,3,7,3.66,9.82,6.55.7.73,1.78.39,2.67.61,2.24.53,2.94,2.15,2.15,4.77-.53-.72-1.33-.66-2.09-.69a9.87,9.87,0,0,1-2.42-.33,3.89,3.89,0,0,1-.88-.46l-.39-.3a9,9,0,0,1-.7-.68c-.11-.11-.21-.23-.33-.34s-.42-.46-.62-.69-.19-.24-.29-.35c-.41-.57-.71.29-1.1.09a11.34,11.34,0,0,1-4.16-2l-1.28-.86a15.51,15.51,0,0,1-2.68-2.3c-.35-.34-.67-.69-1-1s-.66-.66-1-1-.76-.57-1.12-.88a5.21,5.21,0,0,1-1-1.65c-.26-.45-.53-.88-.82-1.31-2.91-4.5-3.52-10-6.4-14.51a24.52,24.52,0,0,1-1.08-2.85,5.33,5.33,0,0,0-.64-.71,7.49,7.49,0,0,0-.89-.46c-3.87-1-8.07-.79-11.62-3a3.32,3.32,0,0,0-1.3-.46l-.44.11a3.49,3.49,0,0,1-.91.11,2.84,2.84,0,0,1-.9-.27,3.64,3.64,0,0,1-.7-.6,3.7,3.7,0,0,1-.46-.79,10.3,10.3,0,0,0-.64-1.62c-.18-.23-.33-.47-.49-.7l-.24-.36a6.65,6.65,0,0,1-.39-.75c-.14-.24-.27-.5-.39-.75a6.94,6.94,0,0,0-.51-1.15c-.27-.26-.53-.54-.81-.8S85.28,141.78,85,141.54Z" fill="#fffffb"/><path d="M81,137.52v.8a4.79,4.79,0,0,1-2.38-2.08c-.91-1.79-2.53-2.58-4.06-3.56a11.22,11.22,0,0,0,1.16,0c2.19-.28,3.79.28,4.28,2.73A9.66,9.66,0,0,0,81,137.52Z" fill="#fffffb"/><path d="M35.05,135.1c3.16-3,7.5-2.72,11.27-4,1,.12,2.09-.29,3.09,1.05a88,88,0,0,0-8.71,2.93,6,6,0,0,0-2.12,1c-.68.7-1.35,1.43-.4,2.38a1.22,1.22,0,0,0,2-.25c1-1.53,2.23-1.69,3.81-1.05a2.91,2.91,0,0,0,1.93.27c3.45-1.32,5.34,1.56,7.8,2.83a2.82,2.82,0,0,1,1.45,2.27c.18,1.41.76,2.61,2.5,2.54a4,4,0,0,0,3.89-3.4c.2-1.13-.34-2.36.49-3.59,1.12,1,2.26,1.84,3.26,2.85A6.4,6.4,0,0,1,67,147.55c-.8,2.77-.82,2.76,1.91,2.47A10.3,10.3,0,0,1,70,150c.32,4.36,1,5.27,4.36,5.86.64.11,1.61.25,1.93-.09,2.07-2.21,5.08-2.74,7.43-4.4,1.52-1.06,1.7-2.83.69-5-.38-.82-1.42-1.56-.75-2.49.86-1.21,1.92.33,2.92.07l.38.11a2.93,2.93,0,0,1,.59.52l.23.32a1.53,1.53,0,0,0,.41.66h0a4.06,4.06,0,0,1,.51,3.59c-1.72.7-1.64,1.76-1,3.31.94,2.18,2.87,4.6-.67,6.46-.92.49,0,1.19.37,1.61,1.73,2.06,1.13,4.2.48,6.45-.54,1.85-1.57,2.77-3.49,2.49a18.25,18.25,0,0,0-4.78.39c-6.53.75-12.62,0-17.53-5-1.08-1.09-2.58-1.35-3.94-1.92-3.28-1.35-6-2.78-6-7.35,0-4-4.54-5.67-6.42-8.87-2.12-3.6-6.3-3.17-9.45-4.75-1-.52-.55.45-.66.66-.56,1-1.19,1.79-2.49,1.58-1.56-1.35.28-2.63.08-3.95,0-.5.06-1,.05-1.52a5,5,0,0,0-.13-1.49C33.27,136.13,34.29,135.73,35.05,135.1Z" fill="#fffef6"/><path d="M57.58,139.42a2.18,2.18,0,0,1,2,1.62c.14.35-.26.81-.67.81a1.71,1.71,0,0,1-2-1.51A.86.86,0,0,1,57.58,139.42Z" fill="#fffef6"/><path d="M85,141.54l.8.81Z" fill="#fffffb"/><path d="M85.79,142.35l.81.8Z" fill="#fffffb"/><path d="M86.6,143.15l.8.81-.4.3-.4-.3Z" fill="#fffffb"/><path d="M90.63,243.84c.92-1.55.62-3.71,2.41-4.83a9.36,9.36,0,0,1,11.44-4.13,3.59,3.59,0,0,0,4.59-1.27c3.09-4.15,5.42-8.82,10.11-11.77,1.61-1,2.34-3.82,2.68-6.11a44.81,44.81,0,0,1,3.71-11.37,4.53,4.53,0,0,0,.56-2.69c-.59-2.86.88-4.78,2.67-6.76,4.24-4.71,3.23-7.13-2.54-9.54a26.45,26.45,0,0,1-14.81-15.76c-1.52-4-3.87-7.63-5.72-11.48-2-4.15-4.12-4.74-8.94-3.63-4.17,1.19-6.27-1.44-8.17-4.44a4,4,0,0,1,.15-1.19.69.69,0,0,1,1-.08c.23.31.56.52.81.81h.8a.5.5,0,0,0,.81,0,.52.52,0,0,1,.8,0,2.14,2.14,0,0,1,.8,0c4.06,2,8.75,1.54,12.9,3.21a10.19,10.19,0,0,0,.8.81c.85.92-.09,2.3.81,3.22,2.44,1.46,3.14,4.23,3.73,6.51.83,3.13,2.4,5.85,3.52,8.79.29.25.5.57.8.81a1.67,1.67,0,0,0,.81,1.61c.23.3.55.51.8.8l.81.81c.27.26.54.53.8.8l3.22,2.42c.24.31.56.52.81.81l4.83,2.41a.53.53,0,0,1,.81,0c.26.28.53.55.8.81s.53.54.81.8.55.53.81.81h3.22c.4.47,1.38.65.8,1.61-.9,1.78-1,3.77-1.61,5.64a1.11,1.11,0,0,1,0,1.61c-.45,1.12-1.73,1.82-1.61,3.22-.3.23-.51.56-.8.81A29,29,0,0,1,128.48,210c-.29.24-.53.54-.8.81s-.53.55-.81.8v.81c-.51.41-.34,1.17-.8,1.61-.63.74-1,1.65-1.61,2.41-.17,4.17-1.89,7.37-4.93,10.38-3.25,3.2-7,6-9.47,9.95a4.7,4.7,0,0,1-4.59,1.88c-4.47-.48-8.26,1.05-11.82,3.45C92.68,242.76,92,243.88,90.63,243.84Z" fill="#fffffb"/><path d="M89,148.79v.81a.52.52,0,0,1-.8,0v-4l.8.81A1.94,1.94,0,0,1,89,148.79Z" fill="#fffef8"/><path d="M108.35,156.85c-1.19-.85-.69-2.11-.81-3.22C108.72,154.47,108.23,155.73,108.35,156.85Z" fill="#fffffb"/><path d="M89,148.79v-2.41c.95.57.78,1.53.81,2.41Z" fill="#fffffb"/><path d="M90.63,149.6l-.81-.81Z" fill="#fffffb"/><path d="M93,149.6h-.8C92.5,149.05,92.77,149.05,93,149.6Z" fill="#fffffb"/><path d="M92.24,149.6q-.4.83-.81,0Z" fill="#fffffb"/><path d="M107.54,153.63l-.8-.81Z" fill="#fffffb"/><path d="M87.4,144l.81.8a.53.53,0,0,1-.81,0,.49.49,0,0,1-.18-.53Q87.31,144,87.4,144Z" fill="#fffffb"/><path d="M87.4,144.76h.81v.81Z" fill="#fffef8"/><path d="M88.21,149.6H89c1.66,1.94,3.27,3.93,5.94,4.55a1.15,1.15,0,0,0,1.31-.52c4.56-.59,8.15,2,8.6,6.44.1,1,.23,1.85,1.15,2.34,1.77.92,1.85,2.82,2.66,4.32,2.32,4.22,3.65,9,7.12,12.57,2.62,2.68,6.11,4.31,8.91,6.81a1.67,1.67,0,0,0,1.54.21c1.84-.48,3.59-.47,4.36,1.63s.38,4.66-1.57,5.78c-3.81,2.19-5.41,5-4.24,9.28a1.48,1.48,0,0,1-.41,1.49c-3.59,3.27-3.31,8-4.51,12.16-.66,2.29-1.35,4.23-3.41,5.64a11.39,11.39,0,0,0-4.76,6.29,4.15,4.15,0,0,1-4.93,3.18c-4.34-.66-7.87,1.26-11.31,3.19-3.61,2-6.77,2.17-10-.55a15.26,15.26,0,0,0-8.09-3.26c-3.47-.49-6.91-1.22-8.8-4.39-5,1.91-5.35,6.2-5.84,10.31-.47,3.86,2.48,6.49,6.43,5.82,2.9-.49,5.57.61,8.33,1,2,.25,2.48,3.51.59,4.35-4.85,2.17-7.64,6.65-11.66,9.71-4.76.08-7.41,4.09-11.19,6a2.45,2.45,0,0,1-1.68-.73c-1.37-.8-2.88-2.67-3.65.6-.14.57-.9.61-1.13-.09-.3-.92-.83-1.39-1.76-1.18-3.11.74-6.16-.61-9.26-.16-1.2.17-2.43,0-3.25,1.16-1.08,1.51-2.06,2.66-2.59-.38-.11-.61-1.15-.79-1.68-.2a14,14,0,0,0-1.51,2.34c-.38.64-.82,1.11-1.58.68-.54-.31-.45-.79-.31-1.37,1.14-4.76,1-5.05-3.25-6.68a3.5,3.5,0,0,1-2.53-2.23c-.44-1.31-1.22-1.17-2.4-.21-2,1.64-4.66,1.28-6.85.46a10.21,10.21,0,0,0-3.38-.79c-1.76-.05-3.07-.21-2.93-2.68C5.59,251,4,250,2.56,249.52c-.91-.31-1.67-1.05-1.14-1.7,1.88-2.28,0-3.17-1.39-4.07.38-1.85,2-1.36,2.92-2.12s-.29-2.17.81-2.92c1.13-.29,1.91.81,3.17.87-.54-5.54,4.88-5.2,7.72-7.83-1.59-1.61-2.32-3.77-3.43-5.71-.72-1.27-1-2.49,0-3.71s2.3-1.39,3.93-1.19,3.24,2.16,5.12.6c2.78,1.64,3.13-.4,3.51-2.35a2,2,0,0,1,.78-1.33,15.16,15.16,0,0,0,5.3,10c1.54,1.41,1,3.22-1,4.27-.94.5-2.08.76-2.67,1.71-1.95,3.09-3.08,7.14-8.75,5.66,1.18,2.19,2.74,2.46,3.41,3.72a39.72,39.72,0,0,0,2.8-3.5c1-1.33.67-3.64,2.87-4a10.21,10.21,0,0,1,7,1.06,18.39,18.39,0,0,0,8,2.79c5,.62,9.82,2.06,14.88,2,.84,0,1.9,0,1.82-1-.11-1.62-.71-3.4-2.56-3.63a35.28,35.28,0,0,0-6-.47c-3,.16-4.73-.91-3.85-4.3.61-2.31-.84-2.05-2.28-1.78-2,.36-3.81,1.31-5.79,1.67-3.51.63-4.79-.31-5-3.74a15.48,15.48,0,0,0-.31-2.79c-1-4.18.87-7.51,5-8.38,4.73-1,9.31-3.6,14.39-1.7,3-3.37,6.45-.45,9.68-.6,2.48-.11,3.8-2,2.82-5-1.32-4-4.37-7.34-4.74-11.77,0-.55-.77-.67-1.25-.9-4.11-2-4.09-2-2.67-6.48,1-3.24,2.1-6.47-1.15-9.24a2.44,2.44,0,0,1-.34-3c1.28-2.77.35-4.57-2.27-5.85a3.39,3.39,0,0,1-2-2.4c-.44-4-3.59-6.47-5.45-9.65a10.15,10.15,0,0,0-5.61-4.89c-3.64-1.22-4.63-4.53-5.49-7.82a5.41,5.41,0,0,1-1-1.7c0-.55.26-1.11-.06-1.66,0-.14,0-.28,0-.43l.26-.34A2.35,2.35,0,0,0,35,141.35c0-.88-.17-1.85.48-2.48.72-.15.92.22,1,.6.79,3.12.82,3.26,3.91,2.5,1.73-.42,2.87-.35,3.44,1.51.11.38.22,1,.45,1.07,3.33.77,3.71,4.53,6.31,6.16a6.41,6.41,0,0,1,3,5c.09,1.15-1.48,2.58-.07,3.28,1.67.83,2.4,2.91,4.56,3,2.88.13,4.85,1.95,6.63,4,.44.5,1,.93,1.44,1.4,1.7,1.71,3.86-.71,5.23.34,1.55,1.18,2.67,2.56,4.83,1.57s4.62.35,6.55-1.43c.15-.14.89.39,1.38.55,2.2.69,2.31.63,2.57-1.69.06-.52-.07-1.06.32-1.5,1.55-1.76.77-3.28-.8-4.25A2.43,2.43,0,0,1,85,158.33c.06-.72.38-1.47,1.22-1.07,3,1.41,1.95-1,1.75-2-.24-1.27-1.39-2.22-1.67-3.58-.2-1-.88-1.94-.25-3C87.06,148.41,87.43,149.45,88.21,149.6Z" fill="#fffdf3"/><path d="M39.07,173.76c1.59,0,1.84-1.39,2.42-2.41,1.6-1.7,4.78-2.69,2.18-6.09-.88-1.15,1.6-2.8.24-4.39-.26-.27-.53-.54-.81-.8h0c-.26-.28-.53-.55-.8-.81a10.19,10.19,0,0,0-.81-.8c-.58-1-1.53-.78-2.42-.81a2,2,0,0,1-1.93.41,3.57,3.57,0,0,1-1.41-.54,6.75,6.75,0,0,0-1.38-.52,17.28,17.28,0,0,1-2-.36,2.74,2.74,0,0,1-1.93-3.39A28.78,28.78,0,0,1,31.84,150c.12-.29.27-.58.41-.86.37-.68.5-1.51,1.19-2,1.46.12,1.61,1.13,1.61,2.29,0,3.18,2,5,4.71,5.67a7.71,7.71,0,0,1,3.86,2.68c2.23,2.45,3.25,5.83,6.1,7.84.82.57.66,1.71.62,2.65-.09,2.21,1.33,3.4,3,4.4.85.51,2.36,0,2.55,1.48s.55,3-.38,4.3c-1.17,1.58-.94,2.49.73,3.5s2.12,2.41,1.65,4.47a39.35,39.35,0,0,1-2,6.9c-.82,1.95-.38,2.59,1.74,2.92.79.13,1.62,0,2.39.21a1.48,1.48,0,0,1,1.31,1.74c-.72,3.4.6,6,2.85,8.42,1.93,2.07,1.63,4.74,1.32,7.27-.13,1.11-1.18,2.41-2,2.22-2.32-.53-5.18,1.67-7-1.46-.65-1.08-1.53-.49-2,.63-1.06,2.42-1.12,2.42-3.42,1a1.53,1.53,0,0,0-1.46-.27c-1.45.56-3.55-.42-4.19,0-3.43,2.49-8.41.82-11.37,4.69-1.2,1.57-1.53,2.61-.68,4.21a4.89,4.89,0,0,1,.52,3.81c-.58,2.21.6,3.29,2.88,2.76,2.79-.65,5.53-1.53,8.27-2.37.76-.23,1.49-.8,2.1.17.51.81,1,1.61.24,2.58a4.92,4.92,0,0,0-.87,1.76,1.51,1.51,0,0,0,1.36,2,69,69,0,0,0,8.29-.33c.59-.19,1.19-.18,1.34.39.45,1.73,1.65,3.06,2.33,4.64.55,1.24.27,2.46-1.47,2.54-1.18,0-2.53.43-3.49-.43-1.21-1.1-1.69-.76-2.28.55-.41.91-1.33.66-2.11.34-2.43-1-4.45-3.78-7.59-1.78-1.25-2.21-3-1-4.71-.85A3.47,3.47,0,0,1,35,239.28c-2-2.95-5.28-1.86-8-2.59-1.11-.3-1.63.73-1.6,1.8a3.76,3.76,0,0,1-1.83,3.37,2.59,2.59,0,0,0-1.43,2.24c0,.77.09,1.84-1,1.77-.88-.05-1.21-.93-1.34-1.78s-.14-1.78-1.33-1.51-1.82.12-1.89-1.21a2.35,2.35,0,0,1,1.37-2.63c.62-.28,1.33-.69,1.91-.35,2.69,1.57,3.16-.71,4-2.26,1.09-2.11,1.76-4.41,4.87-4.61a1.46,1.46,0,0,0,.72-2.69c-2-1.15-2.26-3.92-4.74-4.43-1.11-.23-1.59-1-.74-2.06,1-1.3.57-2.83.67-4.28,1.21-1.08,1-2.7,1.4-4.06.45-1.61-.87-2.52-2.37-1.7A10.83,10.83,0,0,1,16,213.64c-2.57-.46-4.12,2.11-5.59,4-.47.61-.48,1.59-1,2.16-1,1.08-1.82,3-3.61.6-1-1.35-2.7-.68-4.13-.5-2,.25-2.54-.24-1.59-1.62,1.21-1.76.77-2.57-.92-3.32a1.56,1.56,0,0,1-1.09-1.54c.3-2.72-.8-5.27-.9-7.94-.06-1.59.28-3,1.68-3.84,1.76-1,1.67-2.48,1.31-4.18-.59-2.78,2.47-7.87,5-8.62a1.52,1.52,0,0,1,1.71.69c1,1.15,2,.88,3.25.45s1.5-.91,1-2c-1-2.17,0-3.11,1.76-4.76,3.23-3,8-3.73,10.44-7.68.61-1,1.85-.92,2.94-.93,1.71,0,3.31.17,4.64-1.62,1.2-1.62,2.41.3,3.36.92C36,175,37.5,175.85,39.07,173.76Z" fill="#fefcf1"/><path d="M36.66,158.46c-.07,1.21.16,2.35-1.94,2-3.33-.64-3.42-.47-4.9,2.86-1.08,2.41-3.73,3.82-4.1,6.71-.08.64-1.22.55-1.63-.07a14.87,14.87,0,0,0-1.34-2.43c-1.05-1.12-2.16-2-3.81-1.78.31-.24.6-.65.94-.69,1.58-.18,3.26,0,4-2a6.34,6.34,0,0,0-.78-6c-1.58-1.94-1.43-4.73-3.87-6a1.64,1.64,0,0,1,2.42.12,9.19,9.19,0,0,0,4.06,1.58,3.21,3.21,0,0,0,3.45-1.48c.39-.59-.59-4.26-1.13-4.67-2.87-2.21-2.79-2.64.22-4.47,1.88-1.14,4.1-1.15,6-2.16.36,1.7-.9,2.76-1.61,4-.9.72-1.34,1.47-.38,2.52a2.38,2.38,0,0,1,.38,3.12,11.37,11.37,0,0,0-1.51,2.62,3.66,3.66,0,0,0-.32,3.31,3.87,3.87,0,0,0,.5.7,1.2,1.2,0,0,0,1.07.4,2.93,2.93,0,0,1,.77-.16h1.2a1.92,1.92,0,0,1,.78.17,6.2,6.2,0,0,1,.62.53l.29.28a7.79,7.79,0,0,1,.51.63Z" fill="#fffffc"/><path d="M34.24,138.32l-.8-.81Z" fill="#fffffc"/><path d="M87.4,144v.8l-.8-.8Z" fill="#fffef8"/><path d="M15.71,162.49c.82-2.17.8-2.22-1.61-2.42.79-.94,2.31-1,2.13-3.12-.13-1.51,2.26-.67,3.64-.82C20,159.44,19,161.75,15.71,162.49Z" fill="#fffffc"/><path d="M18.94,165.71a9,9,0,0,1-1.5,1.77c-1.54,1.06-2.85.62-3.2-1.23-.26-1.39-1.63-3.56,1.47-3.76C14.57,166.07,14.62,166.12,18.94,165.71Z" fill="#fffffc"/><path d="M14.65,139.28a.71.71,0,0,1-1,.34c-.47-.22-.95-.54-.66-1.18a.69.69,0,0,1,.94-.39A1,1,0,0,1,14.65,139.28Z" fill="#fffffc"/><path d="M66.46,257.53c1.15-2.82,3.6-4.56,5.78-6.4,1.61-1.37,2.63-3.76,5.49-3.57.92.07.92-1.46.57-2.38-.25-.67-.81-1.21-1.54-.64-1.12.87-2,.08-3-.21-1.74-.53-3.37-1.18-5.31-.06-1.57.9-3.22.56-4.5-1.27-1.79-2.57-3.74-4.88-1.67-8.24.42-.69.09-1.84.15-2.78.09-1.53.5-3.35,1.88-3.75,2.25-.66,2.93-2.31,3.42-4.13,1.31.23,1.52,1.12,1.74,1.82.64,2.05,2.24,2.88,4.09,3.4a15.45,15.45,0,0,0,3.51.78,15.31,15.31,0,0,1,10,4.23c2.14,2,4.4,1.65,6.49.46,2.34-1.32,4.53-2.81,7.28-3.15a2.23,2.23,0,0,0,1.35-.78c.77-1,1.34-1.35,2.57-.4s2.82.64,4.23.11c.74-.28,1.53-.66,1.66-1.59.53-3.9,3-6.29,6.24-8.07a3.44,3.44,0,0,0,1.76-3c-.11-4.1,2.93-7.64,2.4-11.55-.35-2.63,4.77-1,2.46-4.19-1.49-2.05.47-3.77.79-5.65a3,3,0,0,1,2.55-2.66,4.08,4.08,0,0,0,3.22-4.38c0-2.32-1.34-3.35-3.28-2.14s-2.77,1-3.51-1.12c-.55-1.51-2.4-1.57-3.58-2.31-2.85-1.79-4.71-4.68-7.61-6.3-1.15-.65-.75-1.49-.62-2.42.23-1.67.06-3-1.88-3.91-2.2-1-.84-4-2.63-5.45,1.1-3.33-4.67-2.38-3.44-4.58,1.83-3.24-1.12-3.36-2-4.94-1.27-2.35-3-2.76-5.3-2.66,4.76-1.81,9.37,0,11,4.76,1,2.8,2.78,5.15,3.81,7.76a109.59,109.59,0,0,0,5.2,10.33c1,1.88,2,3.46,4.27,3.74.86.1,1.72.4,2,1.19.77,2.48,2.88,2.91,4.92,3.46,5.49,1.48,6.73,5.47,3,9.82a15.25,15.25,0,0,1-1.7,1.71c-1.73,1.44-2.43,3.17-1.59,5.34.36.91.79,2.16-.13,2.57-2.49,1.1-.47,4-2.51,5.41-1.7,1.19-1.46,3.8-1.5,5.61-.07,2.86-2.81,4.6-2.44,7.44,0,.21-.54.7-.85.72-3.31.27-4.52,3-6.17,5.2-1.38,1.8-2.46,3.82-3.77,5.69-1.82,2.6-3.29,3-6.07,1.22-1.8-1.13-3-1.31-4.93.16-1.69,1.3-4.13,1.63-5.79,3.25-2.51.72-5.26.1-7.7,1.35-.32.17-.93.26-1.14.08-2.74-2.4-6.57-2.23-9.49-4.12-.81-.53-1.4-1.2-2.46-.61s-1.64.48-1.47-1c.12-1-.87-1.25-1.7-1.18A1.69,1.69,0,0,0,67.44,235c-.13,1.54,1,3,.19,4.67-.18.35.34.83.69.79,2.25-.23,4.43,1.43,6.84-.43s4.94-.76,6.08,2.07.47,5.75-1,8.41c-.19.34-.55.76-.87.8-4.88.61-7.64,4.85-11.73,6.8a4.42,4.42,0,0,1-1.17.23l-.31-.4Z" fill="#fffdf6"/><path d="M41.23,146.74c-.41.73-.46,1.69-1.49,1.75-.84,0-2.94-1.84-2.74-2.46s.82-1.3,1.49-1C39.43,145.52,41.05,145.07,41.23,146.74Z" fill="#fffef6"/><path d="M32.63,149.6c0-1.19,0-2.35-1.29-3-.64-.33-1.76-.26-1.58-1.31s1.13-1.3,2.1-1.32l.77,0v.8a1.25,1.25,0,0,0,0,.81l.81,1.61C33.41,148.07,33.58,149,32.63,149.6Z" fill="#fffef6"/><path d="M32.63,145.57q-.83-.4,0-.81Q33.46,145.17,32.63,145.57Z" fill="#fefcf1"/><path d="M43.91,160.87a2.09,2.09,0,0,1,.66,2.48,2.88,2.88,0,0,0,.19,2.51c1.15,2.07-.6,4.76-3.27,5.49.57-.89,1.12-1.78,1.73-2.64s1.48-1.88-.17-2.83c-.78-.46-.67-1.38,0-2.06A3.83,3.83,0,0,0,43.91,160.87Z" fill="#fffef6"/><path d="M36.66,157.65h2.41c-.46,1.3-1.31,1.44-2.41.81h0l-.31-.41Z" fill="#fffef6"/><path d="M41.49,158.46l.81.8Z" fill="#fffef6"/><path d="M42.3,159.26l.8.81Z" fill="#fffef6"/><path d="M43.1,160.07l.81.8Z" fill="#fffef6"/><path d="M31,156.85A3.69,3.69,0,0,1,31,152c.22.18.3.36.22.54s-.14.27-.22.27v2.41A1.09,1.09,0,0,1,31,156.85Z" fill="#fffef9"/><path d="M31,152.82V152a2.42,2.42,0,0,1,1.61-2.41A4.43,4.43,0,0,1,31,152.82Z" fill="#fffef6"/><path d="M35,156.85H32.63a.51.51,0,0,1-.18-.54q.09-.27.18-.27H35c.24.18.31.36.24.54S35.12,156.85,35,156.85Z" fill="#fffef9"/><path d="M32.63,156v.81a1.13,1.13,0,0,1-1.61,0v-1.62Z" fill="#fffef6"/><path d="M35,156.85V156l.81.81-.4.3-.4-.3Z" fill="#fffef6"/><path d="M35.85,156.85l.81.8a.53.53,0,0,1-.81,0h0a.5.5,0,0,1-.18-.53q.09-.27.18-.27Z" fill="#fffef6"/><path d="M31,156.85h1.61C32.09,157.67,31.56,157.67,31,156.85Z" fill="#fffef9"/><path d="M35.85,156.85v.8l-.8-.8Z" fill="#fffef9"/><path d="M35.85,157.65h.81v.81Z" fill="#fffef9"/><path d="M-6.68,367.8c.72-1,1.68-1.64,2.55-.39,1.75,2.5,2.13-.59,3.22-.78,1.24-.21,2.46-1,1.94-2.88A9.22,9.22,0,0,1,3.52,354a2.16,2.16,0,0,0,.54-2.52c-1.58-5-.82-6.87,3.63-8.72a8.57,8.57,0,0,1,5.07-.84c2.75.68,4.91,0,5.92-2.39,1.34-3.23,2.29-6.72,0-10-.94-1.33-2.13-.44-3.27-.07a9.17,9.17,0,0,1-11.64-5.16,5.74,5.74,0,0,0-3.53-3c-2.63-1-3.24-3-2.17-5.53.48-1.12,1.34-2.26,1-3.42-1.17-4.21.89-6.9,4-9.22,1.29-2-.07-2.28-1.6-2.31-2.4,0-3.33-1.29-3.21-3.6.05-1,.86-2.45-.64-2.73s-3.15,0-3.81,1.55c-1,2.54-2.52,2.41-4.36,1.05-.81-.61-1.52-1-2.49-.23-4.54,3.52-9.23,2.07-13.46-.28a9.57,9.57,0,0,0-7.53-1.09c-3.58.88-4.52-.33-5.92-3.87-1.82-4.58-2.8-9.36-4.29-14-.56-1.72-2.62-2.3-3.18-4,0-2-1.45-3.18-2.46-4.61a4.85,4.85,0,0,1-.37-1.05,9.74,9.74,0,0,0-.81-3.18c-1.33-3.34,0-6.69,3.37-7.43,2.24-.48,4.75-1.15,7,.42.53.48.91,1.33,1.88.76a2,2,0,0,1,1.52-.16c3,2.08,2.48,5.59,3.48,8.48.26.82.6,1.51,1.68,1.21.92-.25,1.73-1.42,2.49-1.19,6.85,2.08,14.64-2.9,21,2.92,1.77,1.63,4.28,2.05,6.62,2.72,4,1.13,7.77,2.49,8.61,7.7.74,4.61,2.73,5.81,7.35,6a7.71,7.71,0,0,1,7.35,5.6c1.74,5.06,9.45,6.45,13.36,2.8,3-2.75,5.55-6.31,10.13-6.75,1.37-.14,2-1.18,2.54-2.33.69-1.54,1.8-3,3.39-3.2,4-.43,6.78-2.75,9.71-5.11a13.66,13.66,0,0,1,7-3c6.52-.66,10.15-4.89,13.41-9.81,3.74-5.63,8-10.68,13.87-14.34a33,33,0,0,1,9.47-4.18c6.34-1.63,12.66-3.45,17.62-8.25a32.32,32.32,0,0,0,4.93-6.25c4.69-7.43,7.38-15.71,10.43-23.83,1.85-4.93,4.86-9.23,7.15-13.93,1.45-3,.91-5.17-.34-7.91-2.55-5.58-7.88-7.06-12.78-8.84-7.64-2.77-11.9-8.31-14.52-15.54-.59-1.64-1.25-3.27-1.72-4.94-1.87-6.8-6-11.29-13.07-12.48-8.83-1.51-14.68-7.27-20.33-13.46a17.89,17.89,0,0,0-12.32-5.8c-4.58-.39-9.43-.33-13-4.18-1.13-1.24-2.35-.9-4.12,0,3.45,1.48,6.32,3.08,9.34,4.4,1.22.54,2.63,1.19,2,2.94-.5,1.5-1.87,1.81-3.29,1.76-1.59-.06-3.17-.59-4.78-.2a6.1,6.1,0,0,1-1.13-.12c-2.81-1.05-4.84,1.24-7.28,1.75a6.68,6.68,0,0,1-1.16.19c-4.2-.49-8.18,1.86-12.45.86-1.16-.28-1.38,1-1.48,2-.36,3.47-2.75,4-5.53,3.63s-4.36-2.31-4.26-5.34a8.2,8.2,0,0,1,.43-2.36c.87-2.61,0-3.67-2.8-3.76-4.65-.13-7.22-2.77-6.87-7.34.38-5-1.3-9.44-3.08-13.88a10,10,0,0,1-.86-5.43c.19-1.19.44-2.73-.41-3.49-3.19-2.87-2.1-5.87-1.31-9.39A17.77,17.77,0,0,0,4.58,72.7C.72,66.88-.46,60.25-.49,53.6c0-6.83-2.18-11.68-8.71-14.24-2.55-1-3.74-3.32-5-5.58-2.16-4-3.72-8.3-6.38-12a11.32,11.32,0,0,1-1-1.37c-.39-.61-.71-1.26-1-1.91s-.61-1.25-.88-1.88c-.37-1.38-1.45-2.28-2.31-3.32a7.16,7.16,0,0,1-.92-2.6C-24,4.16-20-1.34-13.89-5.09a2.68,2.68,0,0,1,3.66.31c1.14,1.22.63,2.52-.08,3.7C-12.13,2-14.65,4.51-16.83,7.41A22.29,22.29,0,0,1-2.91.16C-2,0-1-.41-.14-.16c4.26,1.21,8.55.35,12.75,0C16.2-.47,19.71-1,23.33-.49c2.6.37,3.53-1.36,3.67-3.67C23.9-2,19.69-4.58,19.15-8.92a19.4,19.4,0,0,1,.64-6.78c1.42-5.78,1.56-11-5.26-13.63a4,4,0,0,1-1.65-1.73,3.78,3.78,0,0,1-.63-1.72c.56-2.3,2.1-3,4.3-2.62,1.51.52,3,1,4.61,1.36,8,1.93,11.73-1.75,9.7-9.74a39.52,39.52,0,0,1-.93-4.32c-.71-5-.46-5.29,4.64-4.72-.74-7.26-5.22-12.66-12.1-14.37a8.43,8.43,0,0,1-4.18-2.17A23.7,23.7,0,0,0,1-76.56c-1.86,0-4,.14-4.81-2.07-.73-2,.84-3.2,2.11-4.4,2.2-2.09,3.8-4.48,3.93-7.58-5.11-.25-10.12-.36-13.9-4.58-1.56-1.73-3.19-1.43-4.66.56-3.2,4.34-5.32,4.23-7.08-.67-1.4-3.87-4.27-5.82-7.7-7s-4.1-4.44-6.27-6.49c-2.46-2.32-3.8-4.75-2.69-8.18.26-.81-5.48-11.7-6.26-11.81a37.93,37.93,0,0,0-11.89.17c-3.49.61-7.06,1-10.37,0-4.12-1.25-7.58-.25-11.18,1.49-4.84,2.34-10.07,3.4-15.25,2-8.88-2.47-15.72,1.07-22,6.62a49.13,49.13,0,0,1-11.26,7.66c-2.2,1.06-4.35,2-6.89.87-1.56-.7-2.28.29-3,1.69-1.67,3.23-3.82,4.81-8,5.82-5.09,1.22-9.72.18-14.53.51a5.72,5.72,0,0,1-3.36-1c-3.35-1.91-7.52,0-11-2.29-.65-.43-3.23,1-3.56,3.16a2.36,2.36,0,0,1-1.93,2.28c-1.46.2-2.16-.86-2.71-2a32.38,32.38,0,0,0-2.08-2.94c-1.33-2.12-2.78-3-5.28-1.64-2.33,1.26-4.41.31-6.13-1.51a49.53,49.53,0,0,0-4.1-3.82c-10.21-8.53-21.48-15.75-31.09-25-2.17-2.09-4.27-1.84-6.48-.22a9.1,9.1,0,0,0-1.39,1.45c-1.45,1.61-3,3.46-5.42,2.48-2.22-.89-2.23-3.08-2.16-5.18.11-2.83-1.2-4.36-4.15-4-3.36.44-5.67-1-7.4-3.74a8.68,8.68,0,0,0-7.72-4.21c-2.34,0-3.48-.92-3.74-3.2-.4-3.54-2.35-5.13-6-5-2.66.12-5.3-.38-8-.1-2.43.25-4.62-.79-4.71-3.72-.07-2.37-1.48-2.43-3-1.81-5,2.08-10.22,3.08-15.39,4.4a4.08,4.08,0,0,1-1.09.23,6.35,6.35,0,0,0-5.06.76,3.14,3.14,0,0,1-1.61.09c-1.29-.36-2.56-1.21-3.92-.18a8.19,8.19,0,0,0-.68.76c-1.34,3.81-4.54,2.6-7.25,2.71a10.46,10.46,0,0,1-1.08.24c-3.95.46-7.48,2.19-11.09,3.65a6.61,6.61,0,0,1-2.19.47,8.28,8.28,0,0,0-2.69.47c-.34.15-.7.27-1.05.4-8,2.3-16,4.74-24.05,7.08a19.12,19.12,0,0,0-5.12,2.21c-.28.25-.59.47-.9.7a8.6,8.6,0,0,1-.93.65,8.38,8.38,0,0,1-1,.53c-2.7,2.26-6.07,2-9.25,2.43-1.43.19-2.89.18-4.14,1a12,12,0,0,1-1.44.58c-.3.14-.61.27-.91.42l-.43.25a18.74,18.74,0,0,0-2.46,1.68c-.24.24-.5.47-.76.69a10.55,10.55,0,0,1-.78.72l-.42.35c-3.17,1.61-4.35,4.94-6.49,7.44a20.81,20.81,0,0,1-3.17,3,4.14,4.14,0,0,1-1,.5c-5.05,1-8.27,4.59-11.36,8.27-.79.94-.79,2.69-2.68,2.32v-11.27c4.45,1.78,7.79-1.37,11.54-2.65.25-.08.58-.25.64-.45,1-3.09,4.6-4,5.81-6.93a6.57,6.57,0,0,1,3.54-3.16c1.74-.8,3.35-1.74,3.5-4a2,2,0,0,1,1.9-1.81c2.39-.16,4.66-1.29,7.08-1a10.4,10.4,0,0,0,5.07-.77,42.38,42.38,0,0,0,7-2.79c4.24-2.51,9-3.33,13.59-4.66a34.69,34.69,0,0,0,5.65-2.05c2.41-1.18,4.57-3.09,7.71-2.17,1,.28,2.31-.53,3.4-1A22.34,22.34,0,0,1-338-155.8c2.9-.19,5.42-2.14,8.39-2.56a18.48,18.48,0,0,1,3.54-.54,4.18,4.18,0,0,0,3.5-1.5,6.75,6.75,0,0,1,6.83-2.14c2.34.48,5-.18,7.45-.8,5-1.29,10.19-2,15.06-4.06,4-1.73,6.54-.33,8.49,3.93a2,2,0,0,0,2.16,1.33c2,0,4,.17,6,0,4.6-.43,7.27,2.31,9.32,5.75a4.82,4.82,0,0,0,2.76,2.44c3.46,1.28,7,2.62,8.75,6.4a2.57,2.57,0,0,0,2.59,1.54h2c5,.11,5.87.75,7.29,5.64.17.6-.08,1.34.63,1.8,2-.63,3.51-2.3,5.62-2.94,3-.91,5.51-.48,7.75,1.73,2,2,3.73,4.25,6.68,4.91a1.13,1.13,0,0,1,.66.43c3.6,6.26,11,8.32,15.33,13.71,3.64.84,5.56,4.06,8.39,6a10.64,10.64,0,0,1,3.39,3.35c1,1.8,2.61,2.12,4.08,1.09,3.28-2.31,6.79.18,10.09-.77,2,2.63,4.63,2.23,7.31,1.3,3.61,2.06,7.76,1.15,11.54,2.14,1.64.43,3.32,1,5,1.53s2.85.09,4.38-.17c2.64-.45,5.32-2.75,8.23-.81.85.56,1.49.15,2-.67s1.14-1.3,1.26-2c.62-3.94,3.93-4.71,6.64-4.44,6.47.66,11.08-2.56,15.18-6.54a45.84,45.84,0,0,1,11.6-7.81c3.71-1.86,8-1.19,12.11-.35,5.66,1.17,11,1,16.19-2.24A12.13,12.13,0,0,1-69-132.29c3.74,1.26,7.45.86,11.38-.2,3.59-1,7.57-.6,11.37-.55,1.45,0,2.66.38,4.07-.62a2.45,2.45,0,0,1,3.53.84,3,3,0,0,1-.4,3.69c-1.57,1.82-1.45,4.8.41,6.14,2.25,1.64,3.25,3.39,2.15,6.12a2.06,2.06,0,0,0,.74,2.54c1.8,1.13,2.17,2.87,2.57,4.76a4,4,0,0,0,2.72,3.25c1.83.56,3.22,1.83,4.83,2.73A12.31,12.31,0,0,1-21-99.34c.4.62.7,1.65,1.75,1.24a1.74,1.74,0,0,0,.93-2.36,3.35,3.35,0,0,1-.26-.75c.06-1.71.53-3.18,2.43-3.65s3.21.15,3.44,2.33c.27,2.5,2.62,2.52,3.53,4,1.29,2,3.16,2.7,5.22,3.33,3,.89,4,.39,5.07-2.53.27-.74.27-1.59.58-2.32.64-1.46,1.67-2.49,3.44-2s3,2.55,2.19,4.09C6-95.62,6.21-93.12,6-90.6,5.72-87.46,4-84.8,2.65-82c-.29.57-.94,1-.69,1.83a30.62,30.62,0,0,1,18.69,7.9c2.41,2.08,5.78,2.4,9.57,4-1.79-2.75-2.87-4.7-5-6A3.66,3.66,0,0,1,23.3-78a3.46,3.46,0,0,1,2.76-2.64,3.21,3.21,0,0,1,3.56,1.28A36.59,36.59,0,0,0,34-74.78c2.43,2.1,2,4.14-.73,5.74-.55.32-1.33.18-1.7.86,2.87,4.37,4.61,9.31,7,14,1.34,2.65-.06,4.91-3,5.67-2.33.61-2.57.81-1.42,2.88,1.4,2.53,2,4.88.29,7.47a3.08,3.08,0,0,0-.19,1.57c0,3.12-1.42,5.07-4.46,5.81a29.15,29.15,0,0,0-6.6,3c1.77,4.83,2.28,9.61,0,14.39a2.76,2.76,0,0,0,0,2.35c.37.82.44,1.36,1.91.83,4-1.42,6.49,1,5.72,5.27-.12.65-.46,1.27-.57,1.92-.95,5.61-1.52,6.39-7.22,6-3.92-.3-7.62.4-11.4.94-.39,0-.92,0-1.15.28-2.6,2.73-5.35,1.48-8,.27-2.21-1-4.26-.68-6.57-.08-4.12,1.08-7.85,2.55-10.52,6.05a4.39,4.39,0,0,1-3.95,1.54c-1.62-.05-2.08.72-1.62,2.32.75,2.64,1.85,5.24,4,6.83a7,7,0,0,1,2.78,4.63c.51,2.73,1.89,5,3.22,7.31a9.76,9.76,0,0,0,4,3.82c4,2.22,7.68,5,8.76,9.89a6.17,6.17,0,0,1,.3,2c-.65,5.16.93,10.06,1.73,15.05A14.57,14.57,0,0,0,7,70c4.27,5.87,4.56,12.39,3.42,19.16a3.39,3.39,0,0,0,.57,3,6.27,6.27,0,0,1,1.5,4.47,20.17,20.17,0,0,0,3.58,13.24c1.87,2.78.73,5.67,1,8.48s.37,3.63,3.06,3.8A8,8,0,0,1,25,123.84c2.08,1.72,2.48,3.13,1.58,5.66-.23.63-.6,1.2-.84,1.83-.46,1.17-.26,2.31,1,2.57,1.09.21.9-1,1.14-1.72,1.28-3.78,2.09-4.25,6.1-4.11a15.1,15.1,0,0,0,4.76-.36A19.4,19.4,0,0,1,45.8,127c2.64.17,3.3-1,2.3-3.56a16.85,16.85,0,0,1-.92-10.88,10,10,0,0,1,5.7-6.83c1.38-.59,3-.86,4.23.09,1.41,1.07,1.48,2.77,1.14,4.43-.11.52-.38,1-.54,1.51-1.36,4.58,1.73,8.29,6.62,8.15,4.1-.12,8.43,0,11.85,2.18,3,1.9,6.33,3.3,8.7,6.55,4.22,5.78,9.74,10.25,17.25,11.55,2.61.45,4.91,2,7.58,2.55,1.16.22,1.91,1.25,2.78,2.14,4,4.08,5.49,9.37,7.21,14.51,1.56,4.67,3.79,8.8,7.79,11.79a6.67,6.67,0,0,0,2.34,1.52c3.46.6,6.21,3,9.69,3.6a6.39,6.39,0,0,1,4.37,3.25,77.09,77.09,0,0,1,4.74,7.92,5.92,5.92,0,0,1-.19,5.65c-2.68,5.49-5.73,10.8-8.29,16.37-2.48,5.38-3.11,11.33-6,16.47-.66,1.16-1,2.5-2,3.42a8.74,8.74,0,0,0-2.31,3.68,10.65,10.65,0,0,1-2.89,4.76c-1,.87-1.64,1.77-.43,3,.43.43.23,1-.16,1.44a.91.91,0,0,1-1.41,0c-1.09-.92-2.29-1.1-3.2,0-2.84,3.52-7.33,3.69-11,5.35A42.83,42.83,0,0,1,103,249.9c-5.49,1.28-9.54,5.18-13.49,9-3.69,3.54-6.36,7.91-9.21,12.1a13.32,13.32,0,0,1-8.78,5.81c-5,1-9.55,2.51-12.85,6.62-1.15,1.43-2.69,1.56-4.35,1.53-2.22,0-3.85.58-4.2,3.25-.25,1.9-1.77,2.82-3.69,3.17-4,.73-6.78,3.5-9.49,6.11-1.53,1.47-2.59,3.33-4.86,3.88A3,3,0,0,0,30,303.09c-.67,1.53-1.52,2.7-3.46,2.92-1.55.18-1.65,1.94-2.36,3-1.39,2.16-3,2.32-4.72.29-1.11-1.32-2.92-2.32-1.37-4.76,2.59-4,3-4.53,6.37-4,.39.06.75.32,1.28-.22-1.45-1.44-3.37-2.07-5.11-2.89a5.88,5.88,0,0,1-3.24-3.85c-1-3.19-1.73-3.74-5-3.89-.93,0-1.88,0-2.81,0-1.92-.08-3.48-.88-4-2.78-.7-2.53-3-4.22-3-7.27,0-1.93-2.6-3-4.52-3.43a25.32,25.32,0,0,1-9.85-4.3,8.31,8.31,0,0,0-8.68-.87c-1.48.64-3,1-4.57-.07a3.65,3.65,0,0,0-4.17.15,8.16,8.16,0,0,1-4.68.86c-.83,0-1.92-.08-2.17-.79-1.19-3.44-5.25-3.93-6.85-6.88a1.78,1.78,0,0,0-1.15-1,1.68,1.68,0,0,0-1.84.41c-.34.44-.47,1.17,0,1.48,2.77,2,2.09,6.05,4.82,8.09a1.9,1.9,0,0,1,.42,1.48c-.18,2.1.64,3.9,1.38,5.79a10.65,10.65,0,0,0,3.69,5,2.51,2.51,0,0,1,1,2.76c-.46,2.69.32,3.67,2.49,2.82,3.91-1.53,6.84.39,9.74,2.19,2,1.24,3.46,1.56,5.34-.14s4.32-1.91,6.78-1.9,4.76.23,7.09-.9c2.59-1.24,5,.07,5.07,3C2,295.93,3,296.87,5,297.8c3.17,1.45,3.81,4.18,2.12,7.28-.38.69-1.14,1.25-.76,2.15,1.23,2.95-.54,4.8-2.34,6.69s-1.9,2,0,4a8,8,0,0,1,2.49,3.59c.53,2.34,1.84,3.38,4.13,4.23,1.67.63,2.6.63,3.87-.37s2.87-1,4.53-.33c2.87,1.09,4.33,3.61,5.73,5.85,1.57,2.49.45,5.18-1.58,7.3-.19.19-.51.42-.5.61.28,4.68-4.1,5.74-6.46,8.35-1.15,1.25-2.43,1.34-4,.5-2.62-1.43-2.66-1.36-5.7.4,2.44,3.68,3,7.18-.79,10.5A4,4,0,0,0,5,362.68c.73,2.89.78,5.68-2.88,6.84a2.09,2.09,0,0,0-1.23,1c-1.18,2.89-3,4.18-6.25,3.14" fill="#fff"/><path d="M54.38,128.65c1.67-.31,3.27-1.06,5-.14a4.41,4.41,0,0,0,2.35-.08,1.35,1.35,0,0,0,1.09-1.07,1,1,0,0,0-.79-1.22c-3.42-.74-5.91-3.68-9.51-4-1.2-.09-2.11-.68-2.09-2,0-1.47.92-1.74,2.22-1.33a1.91,1.91,0,0,0,1.86-.49c1-.87,1.65-.5,2.14.59,1.36,3.07,3.95,4,7,3.72,1-.11,1.83-.24,2.52.56.85,1,1.69,1.22,2.72.25.4-.37,1.12-.63,1.49-.3,2,1.8,5.39.11,6.9,3,.38.72,1.33.84,2.16.9a2.43,2.43,0,0,1,2,1.18,56.85,56.85,0,0,0,10,10.56c1.71,1.48,3.89,1.72,5.84,2.52,3.39,1.39,7,2.36,10.48,3.41.76.22,1.63.1,2.11.9,1.7,2.84,4.18,5.12,5.25,8.47s2.37,6.79,3.63,10.16c1.6,4.31,5.2,6.69,8.09,9.79a1.49,1.49,0,0,0,.67.43c2.8.75,5.28,2.69,8,3.13,5.84.95,7.74,5.52,10.23,9.67,1.23,2.05.9,3.87-.38,6.12-3.35,5.87-6.16,12-9.18,18.1a3.5,3.5,0,0,0-.43,1.12c-.9,8.43-6.79,14.65-9.74,22.15-.68,1.73-2.4,2-3.45,3.23-3.68,4.12-8.74,5.68-13.71,7.57-3.5,1.33-7.45,1.08-10.62,3.3-4.36,3-8.93,5.66-12.25,10.15-2.77,3.74-5.51,7.51-8.32,11.23a11.27,11.27,0,0,1-7.06,4.19c-5.15,1-10.19,2.3-13.42,7-.82,1.19-2.1,1-3.3,1-3,.13-5.56.95-6.08,4.52a2,2,0,0,1-2.25,1.85,5.9,5.9,0,0,0-6,2.93c-.4.6-1.4.76-2,1.23-.86.63-1.65,1.36-2.45,2.07-1.13,1-.73,3.63-2.9,3.37-2.47-.3-5.07-.41-7.31-1.78-1.15-.7-2.27-1.43-3.43-2.09-.87-.48-1.66-1-1.55-2.12s.87-2.22-.7-3.1c-1.72-1-3.16-2.5-5.37-2.3a23,23,0,0,1-3.2.18c-1.08-.07-2.4-.44-2.66-1.49-.63-2.46-3.11-4.14-2.73-7A2.61,2.61,0,0,0,3.41,276c-2.25-1-4-2.79-6.87-2.8A9.78,9.78,0,0,1-9.6,270.4c-3.7-3.28-7.72-3.77-12.06-1.6-1,.52-1.52.16-2.44-.22-2.37-1-4.74-2.29-7.31.26-1.55,1.54-2.31,1-3.62-1.64a5.76,5.76,0,0,0,2.18-1.7c2.36-3.45,4.55-4.13,7.91-1.84a5,5,0,0,0,4.34.67c4.56-.79,8.28,1.65,12,3.76,2.07,1.17,3.89,3.06,6.51,1.06a1.67,1.67,0,0,1,2.23.24c1.88,3.53,6.65,4.76,7.21,9.34.17,1.44,1.09,2.73,1.71,4.07.33.73.81,1.85,1.5,1.75,4.4-.63,9,3.2,13.24-.69,1.7,3.57,4.25,4.12,7.63,2.29.66-.37,1.57.1,2.36.24,1.09.2,2.65.28,3.05-.47,1.79-3.3,5.24-5.54,6.29-9.16.55-1.89.69-3.76,2.79-4.37s2.85,1,3.54,2.48,1.69,1.86,2.86.82c3.15-2.8,7.41-2.78,11-4.49a28.15,28.15,0,0,0,8.85-6c7.62-8.11,15.54-15.92,24.93-22a22.12,22.12,0,0,1,6.53-3c8.18-2.08,14.5-7.06,19.12-13.8a61.63,61.63,0,0,0,8.39-17.72c1.28-4.39,4.06-8.08,5-12.66.69-3.21,0-6-.3-9A3,3,0,0,0,134,183a55,55,0,0,1-13.61-8.24,22.72,22.72,0,0,1-8.34-14.2c-.91-6.7-5-10.25-10.3-11.28-8.51-1.65-14.72-6.66-21.3-11.4-1.42-2.65-3.09-4.9-6.63-4.3-5.91-.2-11.3-3.11-17.25-3.18C55.59,130.39,54.34,130.19,54.38,128.65Z" fill="#fff"/><path d="M13.3-31.64a13,13,0,0,0,3.5,2.58c4.1,2.1,4.85,4,4.65,8.57-.17,3.84-1.69,7.48-1.32,11.37.15,1.64,2.93,5.26,4.46,5.53a1.68,1.68,0,0,0,1.66-.85c.64-.8.41-2.11,1.88-2.78.39,2.34-.39,4.42-.68,6.5-.11.83-1,1.19-1.87,1.24a13.23,13.23,0,0,1-2.81,0c-3.16-.51-6.3-1-9.3.65C9.25,0,4.92,2.77.71.81-.16.41-1.1.8-2,1c-5.24.89-10.07,2.48-13.42,7a3.19,3.19,0,0,1-1.93,1.36,1.58,1.58,0,0,1-1.73-.7c-.39-.59.06-1,.41-1.39,2.41-2.5,5-4.79,6.91-7.77.74-1.17,2.31-2.36,1-3.81s-2.53.06-3.72.86A49.83,49.83,0,0,0-19.19.28c-.5.43-1.22.71-1.24,1.47-.05,2.16-1.73,3.23-3,4.54S-26,9.06-26.17,11.05l-.58.17c-4.06-2.43-4.48-4.5-1.53-7.84,1-1.1,2.08-2.07,3-3.26.23-.33.37-.86.67-1,4.94-2.05,8-6.63,12.36-9.34a5.41,5.41,0,0,0,2.46-2.43,4.19,4.19,0,0,1,2.47-2.52c3.38-.92,3.92-2.68,3-6a12.34,12.34,0,0,1,0-7.92c1.26-3.21,3.29-3.59,5.71-1.2a7.88,7.88,0,0,1,2.24,8.39c-.71,2.43-.22,3.6,2.65,3.06C8-19.13,10-19,11-16.93c.46,1,.77,1.87,1.92.93.88-.72,2.06-1.48,1-3-1.93-2.76-2.16-4.5,2.13-4.83,2.28-.18.83-1.68.07-2.49-1.37-1.47-4-2.07-3.25-4.94Z" fill="#fff"/><path d="M46.32,130.27v.8a13.18,13.18,0,0,1-6.75,2.74c-1.62.27-2.79,1.38-4.14,2.13-6.1,5.19-8.36,5.33-15.72,1a7.22,7.22,0,0,0-2.25-.81c-2.71-.59-5.24-1.2-1.83-4.43,1.15-1.09-.17-1.7-.92-2-4.46-1.92-5.62-5.36-5.62-10A35,35,0,0,0,4.45,102c-2.68-4.43-2.06-7.23-.09-10.91,2.86-5.35-.57-9.6-2.86-13.81C-2,70.77-3.36,63.77-4,56.58c-.24-2.57-.43-5.19-1.89-7.29-1.9-2.74-3.41-5.73-5.41-8.4C-14.73,36.3-17,31.08-19.43,26c-.61-1.58-2.21-2.86-1.5-4.84l.4-.43a5.61,5.61,0,0,1,2.51,3c1.55,3.51,3.22,7,5.07,10.34a9.38,9.38,0,0,0,5,4.83C-2.28,41,.67,45.24.45,51.59A39.3,39.3,0,0,0,4.24,70.15c1,2.12,2.51,3.92,3.22,6.31,1.4,4.79,1.79,9.39-.44,14-.51,1-.89,2,.5,2.68,3.23,1.48,2.78,4.35,2.41,7a5.16,5.16,0,0,0,.67,4.06c1.51,2.28,1.07,5.47,3.3,7.54.33.3.19,1.34,0,1.92-.44,1.2-.75,2.28.19,3.38.22.26.41.87.27,1.06-2.14,2.84.07,4.22,1.74,6,1.08,1.14,2.05,1.72,3.46,1a3.51,3.51,0,0,1,3.42.34c1.42.77,1.92,1.81,1.16,3.31a8.5,8.5,0,0,0-1.17,4.2c0,1.66.67,3,2.2,3.47a5.62,5.62,0,0,0,5-.31c1-.7.79-1.83.66-2.94-.34-2.64.08-3.14,2.66-2.39,1.78.52,3.78-.77,5.35.82a.77.77,0,0,0,.73-.11C41.36,128.41,44,130.12,46.32,130.27Z" fill="#fff"/><path d="M12.49-32.44l.81.8c-.18,1.69.6,2.69,2,3.54a6.94,6.94,0,0,1,3,2.57,2.39,2.39,0,0,1-.21,2.63,1.49,1.49,0,0,1-2.05.64c-.77-.31-1.5-1.55-2.37-.32s0,2.26.92,3.11c.39.35.83.66,1.41,1.11-.8,1.18-1.59,2.36-2.39,3.53-.69,1-1.64.56-2.55.48-1.31-.11-.81-.93-.83-1.71,0-1.54-1.58-2.36-3.63-2-.49.09-.92.63-1.41.68-2.85.3-4-1-2.87-3.64C4-24.89,2.51-27.86-.1-30.53c-1.07-1.09-2.23-.77-3,.53a4.88,4.88,0,0,0-.56,1.88C-4.08-24-4.33-20-1.52-16.55c-.21,1-.91,1-1.57,1-3.17.21-5.7,1.2-6.31,4.82-.17,1-.9,1.49-2.08,1.37a3.65,3.65,0,0,0-4,2.63A6.28,6.28,0,0,1-21-2.14c-1.9.28-2.66,1.42-3.53,2.72-1.5-2-1.63-4.08-1.4-6.69a80.67,80.67,0,0,1,3.55-18c2.45-7.49-.49-14.8,1.5-22.07.89-3.26.05-6.87-.94-10.31S-22-63.81-23-67.54c-1.54-6.11-4.19-11.11-9.61-14.54-2.71-1.71-5.17-3.82-8.18-5a14.77,14.77,0,0,1-8-11c-.88-5.17-4-9.44-5.19-14.43-.16-.7-.76-1-1.35-1.39-7.67-4.76-16.23-6.45-25-7.27a5.28,5.28,0,0,0-3.8,1c-.6.41-1.24.77-1.83,1.2-.28.24-.57.46-.86.68a7.21,7.21,0,0,1-.92.64c-2.72.82-5.72-.66-8.39,1.19-.75.52-2.06-.24-3-.84-2.47-1.67-2.34-1-4.91-.52-5.26.89-8.46,4.57-12.22,7.58a21.41,21.41,0,0,1-12.45,4.52,1.3,1.3,0,0,1,.18-1.62c.52-1,1.21-2.24,2.29-1.9,2,.64,3.28-.8,4.85-1,2.8-.4,4-2.25,4.74-4.32,1.19-3.35,4.3-4.71,6.84-5.11a6.37,6.37,0,0,0,4.43-2.58c1.86-2.25,3.66-2.64,6.2-1.19a21.54,21.54,0,0,1,2.34,1.55c1.44,1.12,2.86,1.74,4.79,1a11.61,11.61,0,0,1,3.6-.14c.94,0,2,.17,2.66-.62,1.42-1.83,3.52-2,5.44-2.07,3.73-.14,7.28-1.55,11-1.32,2.84.17,5.84-.22,7.51,3.16.66,1.34,2.41,1.16,3.53.15a8.4,8.4,0,0,1,3.82-2.08c.83-.18,7.55,2,8.13,2.57.94,1,1.13,4.09.31,5.74-.3.59-.75,1.1-1.1,1.67-1.63,2.66-.81,4.19,2.42,4.55a13.18,13.18,0,0,0,2.76.34c2.4-.26,2.55,2.59,4.64,3.17A3.79,3.79,0,0,1-34.92-101c-.38,1,.54,1.58,1.67,1.73,3.45.44,6.31,1.81,8.13,5,1,1.7,2.84,2.33,4.59,3,3.66,1.14,3.83,1.69,1.42,4.67-1.88,2.33-1.6,4.14,1.34,5.13A10.7,10.7,0,0,1-12-76.89a4.3,4.3,0,0,0,4.49,2.07c1.79-.34,3.07.63,4.39,1.55.55.38,1.34,1.31,1,1.54-3.43,2.51.79,8-4.07,9.94A5.8,5.8,0,0,1-2.54-62.9c1.87.24,2.09,1.81,2.58,3.18,1.87,5.22,4.4,6.47,10.22,3.28,2.73-1.49,6.33-.59,7.47,2.16.73,1.77-1.5,4.58-4.26,4.78-2,.14-3.3.54-3.7,2.7s-1.95,3-4.07,3.09a8.09,8.09,0,0,0-3.77.63,5.23,5.23,0,0,0,4.39,1.4c2.94-.16,5.45,1.24,8,2.24,1.62.63,2.64,1.9,1.34,3.77a8.58,8.58,0,0,0-2.62.27C11.71-34.78,11.15-33.74,12.49-32.44Z" fill="#fdfefb"/><path d="M-39.06,258.34h-1.61c-.06-.26-.09-.53-.17-.78-.4-1.11-2.54-1.33-1.89-2.75a7.11,7.11,0,0,1,4-3.69,11.29,11.29,0,0,1,8.16.42c1.47.56,2.54.77,3.6-.21,1.36-1.24,2.36-.81,3.39.37a12.17,12.17,0,0,0,1.16,1.11,1.92,1.92,0,0,0,2.23.4A2.07,2.07,0,0,0-19,250.86a7.93,7.93,0,0,0-1-3c-1-1.41-2.41-2.46-1.7-4.57.3-.9-.9-1.19-1.56-1.56a8.3,8.3,0,0,1-3.95-4.31c-.69-1.66-1.87-3.73-3.35-4.33-2.77-1.11-5.91-1.3-8.91-1.84-.21,0-.48.2-.73.32-2.86,1.38-5.67,2.87-8.59,4.11-1.53.65-1.68,1.27-1,2.72s0,2.21-1.55,1.5c-1.13-.52-1.9-.77-2.85.1a3.44,3.44,0,0,1-2.67.65,6.83,6.83,0,0,0-5.51,1.77c-1.27,1.18-2.79,1.13-4.63-.08-2.79-1.84-5.25-4.68-9.2-4.29-.77.07-1.51-.12-2.22.42-1.13.87-2.23,1.27-3.6.18-.84-.68-1.83-.4-2.07.89-.19,1,.08,2.2-.91,3s-2-.28-3.06-.22a2.06,2.06,0,0,0-1.75.78,7.8,7.8,0,0,1-.61.68c-.23.19-.48.36-.73.53s-.46.4-.68.61c-.56.62-.51,1.51-1,2.17a1.33,1.33,0,0,1-.95.34,2.64,2.64,0,0,1-1-.47l-.38-.37a2.18,2.18,0,0,1-.5-2,3.62,3.62,0,0,1,.5-.9,5.44,5.44,0,0,1,.72-.72,6.19,6.19,0,0,1,.84-.57c.59-.34,1.19-.68,1.76-1.07a117.14,117.14,0,0,0,17.49-13.21c2.34-2.82,4.89-5.45,7.35-8.16,1.44-2.52,4.27-2.77,6.5-4,.31-.21.63-.4.95-.58.78-.54,1.79-1.15,1.69-2.11-.55-5.34,4.36-5.32,7.13-7.36.65-.48,1.78-.49,2.08.41.73,2.17,1.67.91,2.53.26s2.21-1,2-2.25c-.22-1.51-1.66-.9-2.64-1-2.81-.28-3.83-1.43-4.09-4.62s1-6.18.48-9.42c-.39-2.36,2-1.9,3.47-1.39,1.26.43,2,1.7,3.13,2.47,3.09,2.17,5.21,1.24,5.6-2.54.1-.93-.31-1.89-.11-2.8.68-3.07,1.51-6.06,5.46-6.42a6,6,0,0,0,3-1.06c1.4-1.06,4.53-.82,3.49-3.86-.9-2.64-2.76-4.07-5.75-3.08a2.3,2.3,0,0,1,.84-3.45,3.24,3.24,0,0,1,3.8.08,47.59,47.59,0,0,0,5.08,3.19,2.7,2.7,0,0,1,1.33,3.09c-.31,2.26-.82,4.48-1.22,6.72a2.23,2.23,0,0,1-2,2.15c-3.49.26-2,2.09-1,3.43,2.4,3.14,2.47,3.08-1,4.62a1.19,1.19,0,0,0-.74.94c2.95,2.07,7.13-.16,9.91,2.73.49.51.91-.26,1.26-.61a3.07,3.07,0,0,1,2-1.2c7.23.18,8.5-5.71,10.71-10.55a11.35,11.35,0,0,1,2.56-3.59c-.77-.95-2.9-.27-2.7-2.22C-3,174.67-2,174.13-1,173.74c1.25-.48,2.5-1,3.7-1.56,2.29-1.1,4-2.44,1.91-5.22-1.46-2,0-3.58,1.09-5a2.65,2.65,0,0,1,3.64-.53c1.78,1,2.17,2.29,1.37,4.36-1,2.65,1.26,3.3,3.09,3.39,2.7.13,5.24.21,7.64,1.78,1.41.93,3.22.17,4.65-.46,5.25-2.32,9.23.16,13.12,3.2-.44,2.47-2.35,2.75-3.88,1.74-4-2.65-8.07-.49-10.84,1.05a71.12,71.12,0,0,0-11.12,7.74A3.08,3.08,0,0,0,12,187.3c.57,3.32-1.45,4-4.06,3.74-4.21-.46-6.9,1.54-6.79,5.75A9.92,9.92,0,0,1-.75,203c-2.26,3.36-.38,7,.42,10.44C0,215,1.75,216,1.68,218c-.05,1.26,6.5,1.65,7.24.32,2.21-4,5.23-6.33,10.08-5.59a6.21,6.21,0,0,0,3.08-.82c1.23-.5,2.48-1.26,3.76-.19s1,2.63.67,4.09a8.48,8.48,0,0,1-1,2.61c-2.52,5.18-3.36,5.58-9,4.13-1.44-.36-2.93-1-4.08.43s-.11,2.79.48,4.1a8.94,8.94,0,0,0,1.18,2.09c1.92,2.29,1.23,3.77-1.29,4.93-2.18,1-4.49,2-4.84,4.86-.1.75-.7,1-1.38,1.22-4.82,1.8-5.38,5.23-2.31,9.29,3.95,5.21,8.56,7.08,14.72,4.62a2.14,2.14,0,0,1,1.17-.13c3.3.59,8.13,6.44,8.17,9.94,1.19-1.26,2.25-3,4.24-1.16.31.29.68.52,1,.27,4.72-3.27,9.83-1.14,14.79-1.05.52,0,1,.22,1.51-.14,2-1.43,3.17-.29,4,1.52-.07,3.28-3.32,2.89-5,4.33a4.58,4.58,0,0,1-2.59,1c-3.16-.24-4.88,1.1-5.85,4.17a4.64,4.64,0,0,1-5.23,2.95c-4.55-.58-8.83-2-12.33-5.27-1.11-1-1.16-2.3-1.49-3.59-1.21-4.74-7.55-8.54-11.91-7.21a2.63,2.63,0,0,0-1.67,2.1,7.13,7.13,0,0,1-4.22,4.54c-1.58,1.9-3.08,1.69-4.59-.13a8.21,8.21,0,0,0-1.74-1.64c-1.21-.81-2.51-1.18-3.3.54-.62,1.37-1.47,1.32-2.56.66a4.33,4.33,0,0,0-1.73-.91c-2.84-.12-3.15-1.94-3-4.15-2.57-3.32-5.5-2.46-8.55-.79a5,5,0,0,1-5-.5c-1.47-.87-2.48-2.14-4.34-.72-.59.44-1.36-.3-1.91-1C-35.49,254.63-36.68,254.78-39.06,258.34Z" fill="#fffef6"/><path d="M35.05,135.1l-1.61,2.41c.28.25.5.58.8.81v1.61c-1,1.93-3.2,1.74-4.75,2.69-1.07.66-2.85,1.22-1.29,2.91,2,2.11,2.86,4.6.95,6.77-2.12,2.4-4.89,1.22-7.4-.06.72,1.8,1.9,3.41,2.6,5.22,1.94,5,.56,7.48-4.65,8.69a9.33,9.33,0,0,1-1.11.33c-4.2.41-4.69-.13-3.62-3.91a5.17,5.17,0,0,1,.82-.8c1.5-1.09,3-2.17,2.92-4.77-1.95,1.19-2.62,3.67-5,3.77a6.5,6.5,0,0,1-2.91,0c-3.63-2-7.28-3-11.5-1.54-2,.66-3.83,1-5,2.88a3.18,3.18,0,0,1-4.1,1.61,4.38,4.38,0,0,1-3.2-3.77c-.13-1.7.5-3.35,2.24-3.89,3.66-1.15,3.9-3,2.07-6.12a11.86,11.86,0,0,1-1.16-7.73c.38-3-.32-6.09-.31-9.19,0-2.8-2.45-4.71-5.89-4.78-9.45-.19-11.07-1.57-13-10.48a15.3,15.3,0,0,0-2.13-4.28c-2.28-4-1.26-5.31,2.9-6.93,2.34-.9,5.51.28,7.08-2.59a2.7,2.7,0,0,1,.88-.8,2.66,2.66,0,0,1,2.85.3c-.77,3.26-2.68,6-4.58,8.59-1.12,1.54-1.6,2.39.52,3.18A3.53,3.53,0,0,1-19.33,117c2.49,7.12,10.32,8.55,14.61,13.75a18.07,18.07,0,0,0,4,3.32c1.84,1.22,2,2.49-.15,3.52-1.91.9-3.37,2.34-2.54,4.38a16,16,0,0,1,.7,12c3.12-1.95,5.37-2.83,7.94-2.93,1.6-.06,3.26-.64,2.68-3a2.35,2.35,0,0,1,.73-2.21c1.49-1.5.81-2.54-.23-4.11-2.48-3.72-4-7.84-2.57-12.45.41-1.32.83-2.6-.72-3.52-4-2.37-5-6.48-5.68-10.49-1.16-7-5.5-11-12.8-11.15-1.39,0-2.95.86-4.12-.66.81-2.82,2.83-3.81,5.51-3.3,2,.38,3.38-.08,3.15-2.23-.66-6.18,3.34-7.68,8.15-8.5,1.11.09,1.4,1,1.83,1.82a17.49,17.49,0,0,1,.14-2.61,4.45,4.45,0,0,0-1.54-5c-2.33-2-2.22-5-2.69-7.7-.28-1.55-.06-3.19-.82-4.67-1.4-3.7-1.19-7.73-2.33-11.48-1.67-6-3.18-12.07-5.26-18a2,2,0,0,1,.44-1.79c2.32,3.8,5.74,7,7.08,11.32.63,2.07,1.69,4.3.55,6.64a2.5,2.5,0,0,0,.13,1.53A105.6,105.6,0,0,1-.08,72a5,5,0,0,0,1,2.58c2.79,2.77,3.37,6.65,5.17,9.9A4.94,4.94,0,0,1,6,89.74c-1.21,2.11-1.07,4.85-3.3,6.6-1.18.92-.25,2.09.9,2.36,2,.47,2.14,1.81,2.51,3.51.94,4.24,2.38,8.36,3.43,12.57a19.29,19.29,0,0,1,.63,8.21,3.14,3.14,0,0,0,1.44,3.47c1.56,1,3,2.31,4.8,2.87,1,.31,1.72.72,1.62,1.91-.08,1-.74,1.32-1.61,1.44a2.7,2.7,0,0,0-1.14.33,1.37,1.37,0,0,0-.64.92,1.22,1.22,0,0,0,.7.87,8.23,8.23,0,0,0,2.37.28,3.65,3.65,0,0,1,3.38,1.62,5.58,5.58,0,0,0,6.06,2,2.65,2.65,0,0,1,1.55-.15c2.23,1,3.55.45,4.12-2C33.08,135.49,34,135.15,35.05,135.1Z" fill="#fffffc"/><path d="M10.88,160.07H14.1c.88-.56,1.88-.67,2.49.17s0,1.7-.88,2.25c-2,1.08-1.62,2.74-.53,4,1.39,1.58,2.52-.31,3.76-.77,3-.23,3-.23,5.84,2.61a9.08,9.08,0,0,0,2.75-3.59,9.26,9.26,0,0,1,8.68-6.15,9.6,9.6,0,0,0,2.93-1.38,2.55,2.55,0,0,1,2.51.37,6.22,6.22,0,0,1,.7.75l.32.4c.24.26.45.52.68.79l.34.4a4.88,4.88,0,0,1,.6.88,3.52,3.52,0,0,1,.27,1.06c-.67,3.44.91,7.41-2.36,10.26-.82,1-1.24,2.7-3.13,1.65a6.77,6.77,0,0,1-1.51-.45c-3.79-2.23-7.57-3.85-12.06-1.68-2.09,1-4.43,1.73-6.32-.87-.55-.76-1.74-.83-2.95-.57a6.6,6.6,0,0,1-6.51-1.73c-1.26-1.26-1.63-2.17-.19-3.19,1.85-1.32.9-2.26-.31-3s-2.51-1-3.21.83a20.27,20.27,0,0,1-1.28,2.4c.06,1.11,1,1.25,1.65,1.62,1.06.61.85,1.16.57,2.25C6,173,2.53,173.05.05,174.49c-.56.32-1.3.29-1.89.56a1,1,0,0,0-.54,1.34c.12.26.65.38,1,.45a1.7,1.7,0,0,0,.77-.18c.87-.28,1.89-.9,2.37.39s-.69,1.62-1.5,2c-1.47.68-2.43,1.63-2.29,3.37a.75.75,0,0,1,0,.4c-1.9,2.92-2.88,6.37-5.29,9a2.71,2.71,0,0,1-2.72.95c-3.85-.36-4.87.39-6.2,3.86-2-.19-1.36-2.38-2.67-3.32a4.91,4.91,0,0,1-4.83-.22c-1.55-1.07-2.75.6-4.17.53-.76-4.08-.7-4.15,4.3-4.95a1,1,0,0,0-.7-1.26c-2.95-.07-2.65-2.55-3.1-4.28s.34-2.17,2.35-1.62c1.42.38,1.95-.1,2.12-1.48a53.18,53.18,0,0,1,1.11-6.68c.38-1.42-.13-2.11-1.26-2.43a10.47,10.47,0,0,1-4-2.48c-2.49-2.13-3.93-1.44-4.68,2.09-.36,2.06-2.14,2.47-3.05,1.29-1.9-2.47-5.2-3.93-5.66-7.48,0-.68,0-1.46.56-1.85,3.82-2.68,4.62-6.82,5.3-11,.46-2.73,2.62-.71,3.83-1.49-.27-3-4.37-3.11-4.6-6.09,0-.19-.43-.29-.7-.24-5.36.86-10.09-1-15-2.81a7.33,7.33,0,0,0-7.32,1.67c-1.66,1.71-3,4.22-5.88,2-1.8-1.37-1.93-5.44-.35-7.81a30.87,30.87,0,0,0,3.38-5.44,3,3,0,0,0,.1-1.95c-2,3.68-4.8,4-8,.63-1.19-1.26-2.35-2.53-3.65-3.68.92-4,2.26-4.87,7.09-4.53.55-.7.08-1.25-.33-1.75-3.23-3.93-2.92-8.53,1.43-11,3-1.71,2.19-2.56.2-4a1.33,1.33,0,0,1-.51-1.41c4.94-1,9.53,3,9,7.72-.08.66-.09,1.33-.15,2-.2,2.36,1.35,3.63,3.18,2.19,3.51-2.78,7.06-1.52,10.89-1,.39-3.11.21-6.71,4.9-7-1.34-1.08-3.55-1.37-3-3.44A8.75,8.75,0,0,1-36,98.92c1.29-.78,2.29.38,3,1.33a26.37,26.37,0,0,0,4.65,5c.24.66.19,1.82-.3,1.71-3.17-.74-4.11,2.29-6.13,3.42-2.9,1.62-3,4.52-.49,6.7,4.16,3.56,4.16,3.58-.58,6.69a6.47,6.47,0,0,0-2.55,3c-.93,2.24-.49,3.76,2.24,3.7,2.9,0,5.8.58,8.72-.58,2.6-1,5.34-.11,7.88.65s3.09,2.84,1.77,6.29c.6.06.86-.49,1.29-.67.63-.26,1.25-.53,1.88,0,1.14.87.66,2,.25,2.91-.82,2-.25,3.64.66,5.37,2.16,4.15,2.2,6-1.43,8.56s-5.05,7.39-9.74,9.15c-2.57,1-1.85,3.89,1.06,4.85a10,10,0,0,1,4.23,2.15c1.22,1.21,2.32,1.15,3.27-.37a1.91,1.91,0,0,1,2.41-1c4.85,2.31,8.2-.91,10.25-4C.35,157.77,5.23,158.14,10.88,160.07Z" fill="#fffef9"/><path d="M10.83,150.82c-3.77.28-5.79,2.38-8.57,1.39-1-.36-1.84.93-2.43,1.82s-1.24,1.43-2.31.85a2.16,2.16,0,0,1-1.06-2.41c.09-.65.43-1.26.56-1.91.39-2,.85-3.73-.77-5.88-2.64-3.51-1.1-6.61,3.29-8.16.19-.06.29-.39.45-.61a100.93,100.93,0,0,1-10-8.38,9.45,9.45,0,0,0-3.14-2.46c-3-1.18-5.7-2.42-6.09-6.36-.14-1.35-1.82-2.43-3.51-3-2.69-.86-2.71-1.4-.51-3.49,1.49-1.42,2.24-3.34,3.2-5.06,1.61-2.89,4.24-4.8,7.41-4.12,2.17.46,4.87-.14,6.37,2.32a1.21,1.21,0,0,0,1,.46c2-.72,2.44.5,3.52,1.93a8.46,8.46,0,0,1,2,6,8.75,8.75,0,0,0,1.91,6.35c.49.57,1.19,1.15,1,2.09-.36,1.62.65,2,1.94,2.41,2.78.9,3.21,1.65,1.9,4.35a8,8,0,0,0-.16,6.57c.88,2.59,1,5.46,3.84,7.06a1.48,1.48,0,0,1,0,2.67C8.36,146.75,7.67,148.33,10.83,150.82Z" fill="#fff"/><path d="M10.88,160.07c-1.67,1.28-3.31-.06-4.9-.23-2.92-.32-5.34-.49-7,2.68-1.42,2.72-4.45,4-6.5,6.24a3.65,3.65,0,0,1-4.15.61,30.38,30.38,0,0,0-3.34-1c-1.06,1.08-.87,2.73-2.27,3.53a5.17,5.17,0,0,1-3.15-2.14,4.34,4.34,0,0,0-3.42-1.69c-1.73-.22-3.52-.69-3.89-2.84-.27-1.58,1.25-4.11,2.92-4.93a13.62,13.62,0,0,1,2.28-.78c1.1-.31,1.93-.72,2-2.09.15-1.95,1.45-3,3.15-3.8a8.28,8.28,0,0,0,3.17-3c1.11-1.58,2-2.77.13-4.8-2.35-2.56-3-5.82-.1-9-2.95-.75-3.2,2.55-5.31,2.57-.57-1.46.54-2.44,1.13-3.56,1.2-2.26.32-4.37-2.18-4.63-3.34-.34-6.84-1.73-9.93.94-.18.16-.59.34-.7.26-2.73-2.08-6.3.25-9.15-1.85.25-2.13.42-4.39,2-6.19.88-1,1.77-2,3.28-2.1a2.11,2.11,0,0,0,2-2.11c.13-1.19-1.11-1.35-1.92-1.72s-2.24,0-2.33-1.12c-.15-1.8-1.5-3.25-1.47-4.86,0-1.4,1.51-2.45,3-2.94.86-.29,1.93-.1,2.25-1.3.44-1.64,1.36-2.11,3-1.45,1.12.45,1.75-.23,1.85-1.39-.28-.65.11-1,.54-1.4,2.45-2.11,5-1.18,7.52-.22-.29,3-.29,3-3,2.83-1.11-.05-2.17-.47-2.9,1.2-.64,1.45-2.09-.23-3.25,0s-2.14.36-1.56,1.94c.53,1.43.09,3.08,1.74,4.26,1.41,1,1.59,3,1.76,4.75.53,5.76,4.67,9.52,10.25,8.75,1.87-.26,3.39.26,5.08.46a2.36,2.36,0,0,1,2.37,2.26,2.62,2.62,0,0,0,1,2.12c1.68,1.1,1.87,2.07.06,3.29a1.84,1.84,0,0,0-.21,3.1c1.4,1.3,1.66,2.53.65,4.21a4.11,4.11,0,0,0,.26,4.89c1.17,1.56.15,4.45,3.16,5,.65.11.19,1.21-.37,1.61-1.28.94-2.47,2.23-4.07,2.43-2.25.29-2.58,2-2.47,3.46s1.51,2.48,3,3a1.75,1.75,0,0,0,2.37-.94c1.19-3.12,3.45-4.07,6.66-3.87,1.57.09,2.78-1.44,4.85-.93A17.27,17.27,0,0,1,10.88,160.07Z" fill="#fffffc"/><path d="M-20.53,103.68c-.72.27-1.67,1.12-2.13.63-1.88-2-3.44,0-5.12.18a11,11,0,0,0,.27-9.34c-.72-1.67.31-3.66.68-5.48.47-1.3,1.94-2.38.83-4a1.47,1.47,0,0,1,0-1.88c2.6-2.38,1.38-5.21,1-7.88a82.59,82.59,0,0,1-.29-18.79c1-2.14,2.64-1.7,4.31-.94a3.81,3.81,0,0,1,.95.79,30.58,30.58,0,0,1,4.46,9.64c.8,3.94,1.89,7.73,5.08,10.54a6.92,6.92,0,0,0,3.07,1.69c3.69.9,3.65,1,3.65-2.83,0-1.56-.37-3.22.95-4.52,1.68,2.31.56,5.13,1.4,7.67.61,1.83.85,3.54,2.73,4.49.74.37,1.46,1,1.38,1.8-.24,2.75-.63,5.49-1,8.22,0,.25-.55.59-.86.62a.93.93,0,0,1-1-1C-.16,92.14,1.07,91-.4,90c-2.48-.34-4.67,1-7.08,1.24-.89.08-1.48,1-1.71,2-1,4.31-1.24,4.44-5.3,3.24-.38-.11-.73-.31-1.2-.5C-14.79,100.13-18.09,101.63-20.53,103.68Z" fill="#fffef9"/></g><path d="M6.87,164.61l1.35-1c1.15-2.28,4.19-1.86,5.53-3.85,1.52-.06,2,1.54,3.22,2,1.3,2.07.7,4.05-.3,6a1.67,1.67,0,0,1-1,.59,4,4,0,0,0-1.22.17c-2.66,1.32-5.28,2.81-7.28-1-.28-.53-1.29-.32-1.94-.55a1.17,1.17,0,0,1-.36-1.06A2.84,2.84,0,0,1,6.87,164.61Z" fill="#888d48"/><path d="M16.11,168.05c.07-2,1.13-3.83.56-5.86.32-1.42-.41-2.75-.35-4.14a.88.88,0,0,1,.76-.63c1.21-.22,2-2.37,3.56-.85,1.18,1.15.89,2.69.34,3.9-1.3,2.83-1.82,6.11-4.44,8.23A.56.56,0,0,1,16.11,168.05Z" fill="#9ca05e"/><path d="M14.64,159.7l2-1.55c1.2,1.33,1.62,2.67.05,4C16.15,161.24,13.78,161.78,14.64,159.7Z" fill="#91934e"/></g></svg>